<svg width="51" height="28" viewBox="0 0 51 28" fill="none" xmlns="http://www.w3.org/2000/svg">
<path fill-rule="evenodd" clip-rule="evenodd" d="M42.0589 19.6144C40.7858 19.6144 40.985 18.0467 41.9609 18.0467C43.039 18.0467 43.0786 19.6144 42.0589 19.6144ZM0.417211 19.3849V18.3201C0.487108 17.1698 0.783155 16.0337 1.29858 15.0088C2.68616 12.2496 5.53027 10.2083 9.03947 10.2083C10.2362 10.2083 14.0365 11.0215 14.0365 12.2658C14.0365 12.7831 13.5721 13.1139 13.1173 12.9984C12.9266 12.9499 12.2634 12.5551 12.0124 12.4284C8.77494 10.7933 4.35605 12.0744 2.50629 16.0206C1.87751 17.3619 1.75155 18.8777 2.08767 20.3936C3.26584 25.7066 9.83712 27.7374 13.9161 24.0012C14.186 23.7539 14.4111 23.4463 14.6391 23.1564C15.2105 22.4294 15.9749 20.8603 15.9962 19.9084C15.4654 19.7666 15.0128 19.2607 14.4284 19.1246C14.4284 21.8828 11.881 24.3175 9.1375 24.3175C4.8711 24.3175 2.30545 20.0404 4.1393 16.38C6.32152 12.0243 11.8809 13.3362 11.8809 14.5195C11.8809 16.1806 10.2052 14.9114 9.23542 14.9114C5.15745 14.9114 3.95398 19.2068 6.12198 21.5522C7.06892 22.5766 8.01511 22.7499 9.33335 22.7499C11.2898 22.7499 12.9586 20.8236 12.9586 18.8307C12.9586 17.7788 12.6648 17.8707 12.6648 17.361C12.6648 16.3679 13.635 14.7913 13.9755 14.5566C15.2414 13.6837 16.2066 14.7699 17.9557 15.6954C18.4216 15.3833 18.59 15.0374 18.9588 14.6409C19.297 14.2774 19.6451 13.9432 19.9153 13.5398C19.6706 13.1744 16.9557 11.2173 16.3575 10.7288C14.3102 9.05691 7.05849 3.79108 6.1377 2.92015C5.64617 2.45525 5.93045 1.5861 6.68793 1.5861H11.587C12.3466 1.5861 12.9849 1.88272 13.4566 2.16597C15.0869 3.14471 15.6806 5.50537 17.1718 5.50537C21.0923 5.50537 20.0656 5.84752 21.8192 4.46991C24.9865 1.98187 25.9307 2.37002 30.2032 2.37002C32.3627 2.37002 34.1223 4.12974 34.1223 6.28919H38.1395C38.9996 6.28919 39.0697 5.43491 38.7274 4.72146C37.5343 4.72146 36.027 4.96154 35.7632 4.15129C35.3422 2.85854 37.5889 3.15374 38.1395 3.15374C37.9972 2.85712 37.8399 2.37566 37.7109 2.01461C37.4803 1.3688 37.3557 1.35365 37.3557 0.60624C37.3557 0.288744 37.7815 0.0183784 38.1395 0.0183784C39.4663 0.0183784 40.1091 -0.152176 41.0414 0.545846C41.5894 0.956004 44.6477 6.00697 45.2732 6.99389C45.5179 7.37997 45.782 7.64083 45.782 8.24873C45.782 9.16096 45.5242 10.2572 44.6063 10.5023V10.6983C45.3411 10.7594 46.4215 11.4406 46.9403 11.7936C47.567 12.22 48.2627 12.8545 48.7082 13.455C50.1942 15.4582 50.583 16.7853 50.583 19.3206C50.583 23.3505 46.7239 27.4529 42.1567 27.4529C39.7454 27.4529 37.1635 26.3428 35.8721 24.9192C35.4354 24.4377 34.4614 23.2659 34.3183 22.6519C33.6934 23.0703 33.2419 23.5337 32.1627 23.5337H22.1687C21.0948 23.5337 20.2414 22.9708 19.703 22.1781C19.4222 21.7648 17.7181 20.8719 17.3677 20.7903C17.303 21.5673 16.6396 22.9134 16.2914 23.4373C15.5081 24.6157 15.3596 24.6476 14.5507 25.4199C13.4626 26.4588 11.2493 27.4529 9.13721 27.4529C5.61662 27.4529 2.78973 25.6203 1.26537 22.5872C0.765377 21.5924 0.484664 20.4959 0.416931 19.3849H0.417211ZM14.9183 15.7932C15.2127 15.8618 15.2883 15.9204 15.5263 16.067L19.6214 18.3407C19.2944 18.787 18.7601 18.7877 18.7395 19.7124C17.1781 18.8861 15.6905 17.9882 14.1345 17.1649L14.9183 15.7932ZM23.9324 16.675C23.9324 14.304 27.0678 14.304 27.0678 16.675C27.0678 18.4937 23.9324 18.4937 23.9324 16.675ZM21.0911 17.3609C20.4252 17.2058 20.0913 16.7322 19.4254 16.5771C19.5128 16.2499 20.3795 15.3534 20.7285 14.9408C20.921 14.7131 21.0263 14.6645 21.1891 14.4216C21.5403 14.6568 22.1615 15.2948 22.5608 15.4014C22.2141 16.8895 22.5622 16.3759 21.0911 17.361V17.3609ZM40.2952 11.972C41.9518 11.586 43.6453 11.7307 45.1641 12.4921C48.4248 14.1267 49.9669 17.9025 48.5273 21.5757C47.6242 23.88 44.9848 25.8852 42.5488 25.8852C40.3727 25.8852 39.0641 25.6675 37.3775 24.1979C36.4861 23.4211 35.0996 21.6999 35.2491 20.554C35.3637 19.6746 35.881 16.1415 36.1204 15.5376C36.3825 14.8764 36.7821 14.175 37.2314 13.7091C37.614 13.3123 38.3692 12.6099 38.9235 12.4619C38.9716 13.0399 39.2849 13.4778 39.4134 14.0296C34.374 16.696 36.4059 24.3175 41.9609 24.3175C44.9902 24.3175 47.4478 21.7935 47.4478 19.1246C47.4478 17.2281 46.856 15.725 45.4756 14.6301C44.941 14.206 44.7319 13.9317 44.0185 13.9317C43.7417 13.9317 43.4307 14.3403 43.4307 14.6176C43.4307 15.2169 43.8592 15.3323 44.2291 15.5828C44.6008 15.8346 44.8726 16.0522 45.1379 16.4376C45.5684 17.063 46.0981 18.1207 45.9291 19.1668C45.602 21.1911 44.2044 22.75 42.3529 22.75H41.667C39.7106 22.75 38.0417 20.8237 38.0417 18.8308C38.0417 17.4664 38.9828 15.7715 40.0013 15.4995C40.1242 16.0267 40.3836 16.5067 40.4913 16.9692C39.7314 18.1038 39.7075 17.7665 39.7075 19.1248C39.7075 20.2682 40.8712 21.1824 42.059 21.1824C44.656 21.1824 45.2468 17.2785 42.549 16.5771C41.5367 16.3139 41.9602 16.3592 41.0377 13.9732L40.2952 11.9722V11.972ZM23.1486 8.24873C23.0753 7.97385 22.4791 7.25457 22.2259 6.91788C22.1444 6.8096 22.13 6.78956 22.0548 6.697C21.9886 6.61572 21.9293 6.5477 21.8748 6.48505C22.3601 5.76022 24.8406 3.93755 26.3819 3.93755H30.497C31.1203 3.93755 31.6272 4.30839 31.9461 4.64404C32.3283 5.0462 32.5546 5.52889 32.5546 6.28909H27.1657C25.2848 6.28909 24.0263 8.04422 23.1485 8.24873H23.1486ZM9.03947 3.15374C12.6802 3.15374 12.238 2.68619 14.4156 5.42014C16.08 7.50988 17.2525 7.07291 20.5032 7.07291C20.6006 7.43763 23.6235 11.3308 23.9885 11.8179C24.2654 12.1872 25.0086 13.0682 25.1083 13.4417C24.2097 13.4417 23.8721 13.8723 23.3446 14.2255L21.6092 12.8255C20.549 12.0344 9.27437 3.50444 9.03947 3.15374ZM39.2174 1.58601C40.22 1.58601 40.0604 1.62552 40.8643 2.87857C41.322 3.59212 44.3124 8.11712 44.3124 8.54261C44.3124 9.02154 43.9309 9.20856 43.5438 9.34157L39.9599 10.4609C32.6406 12.5377 34.7358 19.3615 33.3991 21.3406C33.2058 21.6268 32.7899 21.9659 32.3588 21.9659H22.1688C21.5615 21.9659 21.093 21.6309 20.8598 21.2173C20.6837 20.9047 20.2817 20.1215 20.2091 19.8103C20.9792 19.4029 22.0597 18.4672 22.8547 18.0466C23.0332 18.7155 24.3527 19.6143 25.5001 19.6143C27.1935 19.6143 28.6354 18.1686 28.6354 16.479C28.6354 15.1781 27.5906 14.0726 26.8017 13.0218C26.5893 12.7387 26.1714 12.2847 26.0879 11.972C26.3688 11.7838 26.6128 11.6302 26.899 11.4114C27.8354 10.6954 28.8422 10.9922 30.693 10.9922L34.8989 10.985C35.9439 10.8503 36.0644 9.42455 34.7101 9.42455H27.6555C26.679 9.42455 26.0251 10.311 25.108 10.7962C24.8198 10.3659 24.4643 9.97271 24.2261 9.52248C24.3663 9.33113 24.7061 9.10677 24.9313 8.9539C25.2199 8.75813 25.3863 8.619 25.6749 8.42371C26.3716 7.95212 26.5117 7.84948 27.6547 7.85616L37.8495 7.86105C39.3843 7.84835 40.4908 6.92983 40.4908 5.40735C40.4908 5.10312 39.4683 2.14857 39.217 1.5861L39.2174 1.58601Z" fill="#056ABF"/>
<path fill-rule="evenodd" clip-rule="evenodd" d="M9.03956 18.0465C9.9738 18.0465 10.2125 19.6142 8.94163 19.6142C7.92188 19.6142 7.96148 18.0465 9.03956 18.0465ZM6.68802 18.8303C6.68802 22.0189 11.2931 21.7096 11.2931 19.1243C11.2931 18.3166 11.2592 17.6845 10.5693 17.1046C8.8023 15.6195 6.68802 17.0394 6.68802 18.8303Z" fill="#056ABF"/>
</svg>
