<svg width="52" height="19" viewBox="0 0 52 19" fill="none" xmlns="http://www.w3.org/2000/svg">
<path fill-rule="evenodd" clip-rule="evenodd" d="M42.0687 17.2448C41.0569 17.2448 40.1722 17.1667 39.3971 16.2911C37.6172 14.2802 38.7224 10.9741 41.8728 10.9741C43.547 10.9741 44.7982 12.4704 44.8813 14.0314C44.9271 14.8934 44.4926 15.6932 44.0731 16.212C43.7068 16.6651 42.8344 17.2449 42.0687 17.2449V17.2448ZM51.0829 11.737V14.0114C51.0829 16.5274 48.0455 16.9845 48.0455 15.873C48.0455 14.1057 49.6133 15.8401 49.6133 13.5215V10.974C48.4358 10.974 47.2617 11.2148 47.2617 10.1902C47.2617 9.36355 47.9062 9.40636 48.7314 9.40636C48.4582 8.99836 47.8587 8.86233 47.3323 8.64992C44.6007 7.54795 41.4395 7.38501 38.6252 7.06911C37.6781 6.96281 24.6335 7.05481 22.1788 7.05481C20.5846 7.05481 18.9454 7.37325 18.9454 6.17297C18.9454 5.21588 21.0672 5.48709 22.0807 5.48709V1.56791C20.1742 1.56791 18.0346 1.42445 16.2063 1.7682C15.4267 1.91476 15.4899 1.92097 15.343 2.66857L14.7322 5.48709C15.4657 5.48709 16.6501 5.32519 17.0673 5.70082C17.6286 6.20599 17.2469 7.05481 16.4959 7.05481C14.9153 7.05481 13.6636 7.10599 12.3787 6.17504C11.8886 5.81992 10.74 4.78756 10.4212 4.31136C9.28428 4.91287 7.83772 5.43243 6.37667 5.65586C2.3701 6.26836 2.38676 5.63375 2.38676 7.83872C3.03106 7.83872 3.95448 7.69065 3.95448 8.62254C3.95448 9.51492 3.07123 9.40636 2.38676 9.40636C2.38676 11.4515 2.07396 12.6643 3.81996 13.1661L6.40396 13.9134C6.40396 10.4765 10.8379 7.88698 13.9803 10.4522C14.3133 10.724 14.3794 10.7268 14.6368 11.0695C15.8567 12.6938 15.7121 13.194 15.7121 14.8932H37.0718C37.0718 14.1169 36.9952 14.2937 37.0772 13.4314C37.1661 12.496 37.694 11.5808 38.2742 10.9025C38.6461 10.4677 39.2095 10.1442 39.7156 9.89441C43.6789 7.93863 47.827 12.2338 45.9183 16.195L44.9988 17.4312C43.3623 18.9977 40.9016 19.2919 39.1285 18.0296C37.9967 17.2238 37.7551 16.4608 37.4638 16.4608H15.3203C15.0515 16.4608 14.7034 17.1143 14.5141 17.3203C12.6225 19.3783 9.27685 19.3311 7.41176 17.0207C7.2588 16.8313 7.09445 16.5917 6.97018 16.3845C6.82597 16.1441 6.75748 15.7984 6.63396 15.6429C6.49229 15.4647 6.57375 15.5412 6.33377 15.4532C6.27084 15.43 6.08824 15.3849 5.94977 15.3473C5.25532 15.1585 3.1829 14.6045 2.6448 14.341C1.77143 13.9134 0.917053 12.9206 0.917053 11.8556V6.66262C0.917053 5.79377 1.52674 5.15341 2.12128 4.82952C3.41639 4.12378 6.36115 4.63911 9.40883 3.1029C12.2516 1.66989 14.8741 0 18.2595 0H25.5101C26.9308 0 28.3078 0.342614 29.3608 0.754371C31.2756 1.50319 36.8194 5.3694 37.1954 5.46122L40.4024 5.68351C41.9309 5.7488 44.7566 6.25811 46.1726 6.67401C50.4686 7.93562 51.0253 8.91699 51.083 11.7367L51.0829 11.737ZM10.9109 10.974C13.9717 10.974 15.18 14.1406 13.4319 16.2384C11.6525 18.3737 7.74647 16.9612 7.90235 14.0313C7.98541 12.4703 9.23668 10.974 10.9109 10.974ZM23.6484 1.56791C25.5075 1.56791 26.8515 1.42248 28.6046 2.09858C30.122 2.68371 32.585 4.32406 34.0995 5.32397C34.2875 5.44805 34.1773 5.35586 34.3283 5.48709H23.6484V1.56791ZM13.2624 4.89923C12.8433 4.6775 12.8313 4.61729 12.5028 4.28709C12.2553 4.03827 11.988 3.89199 11.8907 3.52745L13.7527 2.64665C13.7461 2.92219 13.3457 4.72547 13.2623 4.89913L13.2624 4.89923Z" fill="#056ABF"/>
<path fill-rule="evenodd" clip-rule="evenodd" d="M17.3777 12.5417C17.3777 13.0473 17.7857 13.3255 18.2595 13.3255H34.5243C35.7416 13.3255 35.6511 11.7578 34.5243 11.7578H18.2595C17.7845 11.7578 17.3777 12.0822 17.3777 12.5416V12.5417Z" fill="#056ABF"/>
<path fill-rule="evenodd" clip-rule="evenodd" d="M9.7352 14.6973C9.7352 14.9674 10.2844 15.9821 11.184 15.0685C11.6493 14.5961 12.3807 14.1153 12.3807 13.4236C12.3807 13.1722 12.1086 12.8357 11.5969 12.8357C11.0009 12.8357 9.73529 14.2768 9.73529 14.6973H9.7352Z" fill="#056ABF"/>
<path fill-rule="evenodd" clip-rule="evenodd" d="M40.4031 13.4236C40.4031 14.0683 41.8089 15.5596 42.4077 15.4279C42.7239 15.3584 43.0485 15.0122 43.0485 14.6973C43.0485 14.2768 41.7829 12.8357 41.1869 12.8357C40.6752 12.8357 40.4031 13.1722 40.4031 13.4236Z" fill="#056ABF"/>
</svg>
