<svg width="14" height="14" viewBox="0 0 14 14" fill="none" xmlns="http://www.w3.org/2000/svg">
<path fill-rule="evenodd" clip-rule="evenodd" d="M13.854 0.14586C13.9225 0.214346 13.9697 0.301277 13.9898 0.396081C14.0098 0.490884 14.0019 0.589474 13.967 0.67986L8.96698 13.6799C8.93159 13.7718 8.8698 13.8513 8.78937 13.9083C8.70895 13.9653 8.61348 13.9972 8.51496 14.0001C8.41644 14.003 8.31927 13.9767 8.23565 13.9245C8.15203 13.8723 8.08569 13.7966 8.04498 13.7069L5.95398 9.10686L9.02998 6.02986C9.16246 5.88769 9.23458 5.69964 9.23115 5.50534C9.22773 5.31104 9.14901 5.12565 9.0116 4.98824C8.87419 4.85083 8.6888 4.77211 8.4945 4.76869C8.3002 4.76526 8.11215 4.83738 7.96998 4.96986L4.89298 8.04586L0.292978 5.95586C0.202945 5.9152 0.126974 5.84878 0.0746555 5.76498C0.0223366 5.68118 -0.00398621 5.58376 -0.000990718 5.48502C0.00200477 5.38627 0.0341843 5.29063 0.0914865 5.21016C0.148789 5.12968 0.228645 5.06799 0.320978 5.03286L13.321 0.0328603C13.4112 -0.00186516 13.5096 -0.00967272 13.6042 0.0103835C13.6988 0.0304398 13.7856 0.0774991 13.854 0.14586Z" fill="#056ABF"/>
</svg>
