<svg width="24" height="24" viewBox="0 0 24 24" fill="none" xmlns="http://www.w3.org/2000/svg">
<path d="M8.96024 14.2498C8.22638 14.2497 7.50901 14.032 6.89884 13.6243C6.28866 13.2166 5.81307 12.6371 5.5322 11.9591C5.25132 11.2811 5.17777 10.5351 5.32084 9.81528C5.46391 9.0955 5.81718 8.4343 6.33599 7.91526L10.1655 4.08651C10.8615 3.39052 11.8055 2.99951 12.7897 2.99951C13.774 2.99951 14.718 3.39052 15.414 4.08651C16.11 4.78251 16.501 5.72648 16.501 6.71076C16.501 7.69505 16.11 8.63902 15.414 9.33501L14.9992 9.74901L13.938 8.68926L14.3557 8.27151C14.7689 7.85637 15.0006 7.29434 15 6.70864C14.9995 6.12294 14.7667 5.56136 14.3527 5.14701C13.9314 4.74492 13.3714 4.52058 12.789 4.52058C12.2066 4.52058 11.6466 4.74492 11.2252 5.14701L7.39724 8.97501C7.19174 9.18028 7.02871 9.42405 6.91748 9.69237C6.80626 9.96069 6.749 10.2483 6.749 10.5388C6.749 10.8292 6.80626 11.1168 6.91748 11.3852C7.02871 11.6535 7.19174 11.8972 7.39724 12.1025C7.81857 12.5046 8.37859 12.7289 8.96099 12.7289C9.54339 12.7289 10.1034 12.5046 10.5247 12.1025L11.5852 13.163C11.2413 13.5087 10.8321 13.7827 10.3816 13.9693C9.93099 14.1558 9.4479 14.2511 8.96024 14.2498Z" fill="white"/>
<path d="M14.9602 12.75C14.2264 12.7499 13.509 12.5323 12.8988 12.1246C12.2887 11.7168 11.8131 11.1373 11.5322 10.4594C11.2513 9.78137 11.1778 9.03533 11.3208 8.31554C11.4639 7.59576 11.8172 6.93456 12.336 6.41552L12.7507 6.00002L13.8112 7.06127L13.3972 7.47527C12.9826 7.88991 12.7497 8.45227 12.7497 9.03865C12.7497 9.62502 12.9826 10.1874 13.3972 10.602C13.8186 11.0041 14.3786 11.2285 14.961 11.2285C15.5434 11.2285 16.1034 11.0041 16.5247 10.602L20.3535 6.77327C20.7673 6.35837 20.9997 5.79628 20.9997 5.21027C20.9997 4.62426 20.7673 4.06217 20.3535 3.64727C19.9322 3.24518 19.3721 3.02084 18.7897 3.02084C18.2073 3.02084 17.6473 3.24518 17.226 3.64727L16.1655 2.58602C16.8615 1.89003 17.8055 1.49902 18.7897 1.49902C19.774 1.49902 20.718 1.89003 21.414 2.58602C22.11 3.28202 22.501 4.22599 22.501 5.21027C22.501 6.19456 22.11 7.13853 21.414 7.83452L17.586 11.6618C17.242 12.0075 16.8329 12.2816 16.3824 12.4683C15.9318 12.655 15.4487 12.7505 14.961 12.7493" fill="white"/>
<path d="M18 22.5H3C2.6023 22.4996 2.221 22.3414 1.93978 22.0602C1.65856 21.779 1.5004 21.3977 1.5 21V6C1.5004 5.6023 1.65856 5.221 1.93978 4.93978C2.221 4.65856 2.6023 4.5004 3 4.5H6V6H3V21H18V13.5H19.5V21C19.4996 21.3977 19.3414 21.779 19.0602 22.0602C18.779 22.3414 18.3977 22.4996 18 22.5Z" fill="white"/>
</svg>
