<svg width="12" height="12" viewBox="0 0 12 12" fill="none" xmlns="http://www.w3.org/2000/svg">
<path d="M4.00001 7.5C4.44348 7.49989 4.87442 7.64718 5.22506 7.91871C5.57569 8.19024 5.82614 8.5706 5.93701 9H11.5C11.625 8.99977 11.7455 9.04633 11.8378 9.13051C11.9301 9.21469 11.9876 9.33039 11.9989 9.45482C12.0102 9.57926 11.9745 9.70341 11.8988 9.80283C11.8231 9.90225 11.713 9.96974 11.59 9.992L11.5 10L5.93701 10.001C5.82651 10.4308 5.57623 10.8116 5.22556 11.0835C4.87489 11.3554 4.44375 11.503 4.00001 11.503C3.55627 11.503 3.12513 11.3554 2.77446 11.0835C2.42379 10.8116 2.1735 10.4308 2.06301 10.001L0.500006 10C0.37506 10.0002 0.254556 9.95367 0.162223 9.86949C0.0698901 9.78531 0.0124202 9.66961 0.0011307 9.54518C-0.0101588 9.42074 0.0255502 9.29659 0.101226 9.19717C0.176901 9.09775 0.287059 9.03026 0.410006 9.008L0.500006 9H2.06301C2.17388 8.5706 2.42432 8.19024 2.77495 7.91871C3.12559 7.64718 3.55653 7.49989 4.00001 7.5ZM4.00001 8.5C3.73479 8.5 3.48044 8.60536 3.2929 8.79289C3.10536 8.98043 3.00001 9.23478 3.00001 9.5C3.00001 9.76522 3.10536 10.0196 3.2929 10.2071C3.48044 10.3946 3.73479 10.5 4.00001 10.5C4.26522 10.5 4.51958 10.3946 4.70711 10.2071C4.89465 10.0196 5.00001 9.76522 5.00001 9.5C5.00001 9.23478 4.89465 8.98043 4.70711 8.79289C4.51958 8.60536 4.26522 8.5 4.00001 8.5ZM8.00001 0.5C8.44348 0.499887 8.87442 0.647176 9.22506 0.918706C9.57569 1.19024 9.82614 1.5706 9.93701 2H11.5C11.625 1.99977 11.7455 2.04633 11.8378 2.13051C11.9301 2.21469 11.9876 2.33039 11.9989 2.45482C12.0102 2.57926 11.9745 2.70341 11.8988 2.80283C11.8231 2.90225 11.713 2.96974 11.59 2.992L11.5 3L9.93701 3.001C9.82651 3.43076 9.57622 3.81157 9.22556 4.08349C8.87489 4.3554 8.44375 4.50297 8.00001 4.50297C7.55627 4.50297 7.12513 4.3554 6.77446 4.08349C6.42379 3.81157 6.1735 3.43076 6.06301 3.001L0.500006 3C0.37506 3.00023 0.254556 2.95367 0.162223 2.86949C0.0698901 2.78531 0.0124202 2.66961 0.0011307 2.54518C-0.0101588 2.42074 0.0255502 2.29659 0.101226 2.19717C0.176901 2.09775 0.287059 2.03026 0.410006 2.008L0.500006 2H6.06301C6.17388 1.5706 6.42432 1.19024 6.77495 0.918706C7.12559 0.647176 7.55653 0.499887 8.00001 0.5ZM8.00001 1.5C7.73479 1.5 7.48044 1.60536 7.2929 1.79289C7.10536 1.98043 7.00001 2.23478 7.00001 2.5C7.00001 2.76522 7.10536 3.01957 7.2929 3.20711C7.48044 3.39464 7.73479 3.5 8.00001 3.5C8.26522 3.5 8.51958 3.39464 8.70711 3.20711C8.89465 3.01957 9.00001 2.76522 9.00001 2.5C9.00001 2.23478 8.89465 1.98043 8.70711 1.79289C8.51958 1.60536 8.26522 1.5 8.00001 1.5Z" fill="black"/>
</svg>
