<svg width="23" height="25" viewBox="0 0 23 25" fill="none" xmlns="http://www.w3.org/2000/svg">
<path d="M8.03784 23.1012V19.4065C8.03784 18.4633 8.80802 17.6987 9.75809 17.6987H13.2311C13.6873 17.6987 14.1248 17.8786 14.4475 18.1989C14.7701 18.5192 14.9513 18.9535 14.9513 19.4065V23.1012C14.9484 23.4933 15.1033 23.8703 15.3816 24.1486C15.6599 24.4269 16.0385 24.5834 16.4335 24.5834H18.8029C19.9095 24.5863 20.9718 24.1518 21.7553 23.3761C22.5388 22.6003 22.9792 21.5468 22.9791 20.4483V9.92253C22.9791 9.03514 22.5829 8.19339 21.8972 7.62406L13.8369 1.23342C12.4348 0.112927 10.4259 0.149105 9.06566 1.31935L1.18929 7.62406C0.471208 8.17661 0.042022 9.02085 0.020813 9.92253V20.4375C0.020813 22.7272 1.89057 24.5834 4.19702 24.5834H6.51233C7.33271 24.5834 7.99943 23.9263 8.00538 23.1119L8.03784 23.1012Z" fill="#056ABF"/>
</svg>
