<svg width="18" height="20" viewBox="0 0 18 20" fill="none" xmlns="http://www.w3.org/2000/svg">
<path d="M8.99999 0C7.09044 0 5.25909 0.758569 3.90883 2.10883C2.55856 3.45909 1.79999 5.29044 1.79999 7.2V11.5032L0.951595 12.3516C0.783823 12.5194 0.669575 12.7332 0.623294 12.966C0.577013 13.1987 0.600777 13.4399 0.691581 13.6592C0.782385 13.8784 0.936152 14.0658 1.13344 14.1977C1.33074 14.3295 1.56269 14.3999 1.79999 14.4H16.2C16.4373 14.3999 16.6693 14.3295 16.8665 14.1977C17.0638 14.0658 17.2176 13.8784 17.3084 13.6592C17.3992 13.4399 17.423 13.1987 17.3767 12.966C17.3304 12.7332 17.2162 12.5194 17.0484 12.3516L16.2 11.5032V7.2C16.2 5.29044 15.4414 3.45909 14.0912 2.10883C12.7409 0.758569 10.9096 0 8.99999 0ZM8.99999 19.2C8.04521 19.2 7.12954 18.8207 6.45441 18.1456C5.77928 17.4705 5.39999 16.5548 5.39999 15.6H12.6C12.6 16.5548 12.2207 17.4705 11.5456 18.1456C10.8704 18.8207 9.95477 19.2 8.99999 19.2Z" fill="#D6D6D6"/>
</svg>
