<svg width="252" height="254" viewBox="0 0 252 254" fill="none" xmlns="http://www.w3.org/2000/svg">
<path d="M99.4807 251.317C99.5514 248.063 99.8542 244.816 100.393 241.605C100.927 238.417 101.685 235.267 102.654 232.183C103.631 229.077 104.821 226.04 106.218 223.101C107.611 220.17 109.207 217.337 110.991 214.629C112.774 211.923 114.749 209.346 116.9 206.923C117.167 206.625 117.437 206.328 117.708 206.032C117.994 205.723 117.532 205.255 117.243 205.567C115.02 207.982 112.971 210.558 111.116 213.267C109.268 215.964 107.614 218.792 106.161 221.72C104.702 224.663 103.444 227.71 102.403 230.827C101.368 233.928 100.548 237.103 99.9555 240.32C99.3596 243.553 98.9898 246.828 98.8598 250.113C98.8454 250.513 98.8325 250.915 98.8244 251.316C98.8149 251.74 99.4715 251.74 99.4811 251.316L99.4807 251.317Z" fill="#F1F3F4"/>
<path d="M87.9754 241.123C87.6266 238.73 87.4985 236.304 87.5736 233.887C87.6472 231.459 87.9308 229.04 88.4148 226.658C88.8969 224.277 89.5774 221.935 90.4459 219.664C91.3121 217.395 92.3727 215.201 93.6076 213.11C94.8377 211.029 96.2442 209.051 97.8186 207.216C98.0138 206.99 98.2108 206.765 98.4112 206.542C98.6929 206.227 98.23 205.759 97.9464 206.076C96.2954 207.919 94.8086 209.908 93.5052 212.012C92.2044 214.108 91.0911 216.318 90.1623 218.603C89.2346 220.879 88.498 223.235 87.9614 225.634C87.4215 228.051 87.0819 230.516 86.9541 232.991C86.826 235.455 86.9107 237.93 87.2167 240.377C87.255 240.685 87.2966 240.992 87.3416 241.299C87.367 241.475 87.5894 241.572 87.7452 241.528C87.9341 241.477 88.0015 241.301 87.9757 241.124L87.9754 241.123Z" fill="#F1F3F4"/>
<path d="M63.6352 224.799C63.5192 221.355 63.4032 217.914 63.2876 214.471C63.2548 213.494 63.222 212.519 63.1892 211.543C63.1749 211.121 62.5182 211.119 62.5322 211.543C62.6482 214.986 62.7642 218.429 62.8799 221.871C62.9127 222.847 62.9454 223.824 62.9786 224.799C62.9929 225.221 63.6496 225.225 63.6356 224.799L63.6352 224.799Z" fill="#F1F3F4"/>
<path d="M79.3423 194.332C80.34 192.658 81.4342 191.042 82.616 189.494C83.7871 187.964 85.0507 186.502 86.3865 185.115C87.7337 183.718 89.1575 182.396 90.6516 181.159C92.141 179.926 93.7014 178.779 95.3226 177.724C96.9527 176.661 98.6446 175.693 100.387 174.827C100.599 174.722 100.81 174.618 101.023 174.515C101.184 174.439 101.225 174.21 101.14 174.066C101.046 173.902 100.852 173.87 100.692 173.947C98.9315 174.794 97.219 175.741 95.5679 176.785C93.9051 177.837 92.3038 178.985 90.7706 180.217C89.2477 181.442 87.7934 182.753 86.4171 184.142C85.0415 185.531 83.7441 186.999 82.5346 188.536C81.3174 190.084 80.1849 191.696 79.1533 193.375C79.0255 193.582 78.8992 193.791 78.7748 193.999C78.5571 194.364 79.1254 194.696 79.3427 194.332L79.3423 194.332Z" fill="#F1F3F4"/>
<path d="M114.864 253.999C115.16 251.266 115.482 248.817 115.831 246.707C119.542 224.283 119.127 208.539 119.127 208.539H85.5234C85.5234 208.539 85.2335 233.271 85.2335 254H114.864V253.999Z" fill="#F2714D"/>
<path d="M122.285 254H149.725C149.725 233.271 149.436 208.539 149.436 208.539H115.832C115.832 208.539 116.273 223.08 120.726 245.371C121.293 248.205 121.811 251.085 122.285 254Z" fill="#F2714D"/>
<path d="M148.452 118.501C149.531 116.383 148.966 99.7936 147.092 98.1493C145.582 96.8232 143.452 96.2191 141.414 95.6394C136.035 94.1087 132.074 92.4404 126.806 90.6377C125.909 90.3308 124.974 89.9948 124.363 89.3441C123.694 88.6314 123.984 71.064 123.984 71.064H110.118C110.118 71.064 110.408 88.6314 109.738 89.3441C109.128 89.9948 108.193 90.3308 107.295 90.6377C102.029 92.4404 97.7255 94.1087 92.3467 95.6394C90.3093 96.2191 88.1791 96.8232 86.6684 98.1493C84.7942 99.7936 84.2293 116.383 85.3087 118.501L116.881 125.579L148.452 118.501Z" fill="#F5886C"/>
<path d="M123.928 81.0748C123.899 76.2311 123.984 71.064 123.984 71.064H110.118C110.118 71.064 110.248 78.8991 110.134 84.3158C115.122 85.2438 119.815 83.8203 123.928 81.0748Z" fill="#282828"/>
<path d="M135.038 52.1206C134.27 56.9484 130.288 68.3207 127.835 73.5092C125.255 78.9662 118.8 80.7276 114.97 80.1146C111.151 79.5042 106.175 75.7348 104.81 69.8742C103.54 64.4171 103.814 52.0899 104.584 47.2503C105.994 38.3854 113.418 35.658 121.829 37.0032C130.238 38.3484 136.45 43.256 135.039 52.1206H135.038Z" fill="#F5886C"/>
<path d="M121.964 57.6335C123.478 53.1354 128.734 57.9736 127.883 58.5995C127.03 59.225 125.291 57.8739 123.761 57.9326C123.237 57.9525 121.865 58.228 121.964 57.6338V57.6335Z" fill="#30304D"/>
<path d="M115.122 56.5394C115.077 51.7925 108.635 54.6776 109.25 55.5376C109.866 56.3983 111.885 55.7296 113.319 56.2625C113.813 56.4453 115.031 57.1343 115.122 56.539V56.5394Z" fill="#30304D"/>
<path d="M117.697 57.7434C117.26 59.2475 117.241 60.8482 117.609 62.3685C117.798 63.1499 118.109 63.8651 118.428 64.5992C118.732 65.3001 118.918 66.032 118.312 66.6254C117.651 67.2749 116.636 67.4533 115.766 67.6375C115.406 67.7136 115.465 68.29 115.83 68.2132C117.217 67.9193 119.461 67.3894 119.301 65.5261C119.229 64.6956 118.73 63.9523 118.454 63.1827C118.162 62.3759 117.986 61.5317 117.936 60.675C117.882 59.7153 118 58.7571 118.268 57.8346C118.372 57.4779 117.8 57.39 117.698 57.7434H117.697Z" fill="#D5644D"/>
<path d="M125.752 61.5333C125.637 62.2534 124.962 62.7442 124.245 62.629C123.525 62.5145 123.037 61.8372 123.151 61.1172C123.266 60.3971 123.94 59.9067 124.658 60.0216C125.378 60.136 125.866 60.8133 125.752 61.5333Z" fill="#30304D"/>
<path d="M112.979 59.4909C112.865 60.2106 112.189 60.7014 111.471 60.5866C110.752 60.4717 110.263 59.7945 110.377 59.0748C110.492 58.3547 111.167 57.864 111.886 57.9792C112.603 58.094 113.093 58.7705 112.978 59.4909H112.979Z" fill="#30304D"/>
<path d="M136.37 65.6783C136.027 67.8263 134.014 69.2897 131.871 68.947C129.73 68.6043 128.271 66.5852 128.612 64.4372C128.953 62.2891 130.968 60.8257 133.109 61.1684C135.253 61.5111 136.711 63.5299 136.37 65.6783Z" fill="#F5886C"/>
<path d="M133.873 63.2098C134.37 63.6448 134.642 64.3257 134.554 64.9852C134.464 65.6643 134.011 66.2677 133.391 66.5509C133.066 66.6993 133.265 67.2207 133.592 67.0716C134.389 66.7078 134.987 65.9516 135.104 65.0735C135.218 64.2156 134.873 63.3449 134.227 62.7785C133.956 62.541 133.604 62.9738 133.873 63.2101V63.2098Z" fill="#D5644D"/>
<path d="M99.1106 59.7199C98.7692 61.8683 100.229 63.887 102.372 64.2297C104.513 64.5724 106.527 63.109 106.87 60.9606C107.211 58.813 105.752 56.7938 103.608 56.4511C101.467 56.1084 99.452 57.5722 99.1106 59.7199Z" fill="#F5886C"/>
<path d="M102.248 58.1523C101.641 58.4108 101.174 58.9736 101.052 59.6275C100.927 60.3007 101.171 61.0156 101.672 61.4787C101.935 61.7206 101.584 62.1541 101.318 61.9104C100.674 61.3169 100.341 60.4111 100.5 59.54C100.66 58.6892 101.257 57.9692 102.046 57.6324C102.378 57.4913 102.578 58.012 102.248 58.1527L102.248 58.1523Z" fill="#D5644D"/>
<path d="M103.87 61.4165C104.639 61.6229 104.962 62.5177 105.167 63.2891C105.412 64.207 105.657 65.1247 105.902 66.0427C106.162 67.0168 106.48 68.0755 107.315 68.6379C107.783 68.9543 109.383 67.7945 111.615 68.057C115.826 68.5515 119.653 69.0178 123.816 69.818C125.871 70.2128 125.858 72.2726 127.392 70.8468C128.968 69.3827 129.097 66.4998 131.102 65.7233C131.102 65.7233 127.993 75.2241 127.13 77.1159C126.266 79.0072 122.667 82.6043 115.424 81.4455C108.181 80.2875 105.796 76.1849 104.934 73.1152C104.074 70.0463 103.869 61.4165 103.869 61.4165H103.87Z" fill="#30304D"/>
<path d="M122.293 70.3064C120.461 69.4497 118.32 70.1757 116.302 69.6967C115.57 69.5239 114.888 69.1942 114.172 68.9922C113.332 68.7584 112.378 68.6993 111.608 69.258C111.589 69.254 112.256 71.2632 113.184 71.9057C114.191 72.6265 115.455 72.9603 116.699 73.1549C117.923 73.3521 119.225 73.4248 120.358 72.9799C121.047 72.7354 122.347 70.8016 122.293 70.306V70.3064Z" fill="#FEFEFE"/>
<path d="M103.764 60.1054C102.465 60.5626 102.499 46.5279 103.572 40.2345C104.645 33.9411 112.323 31.6524 122.758 33.3204C133.189 34.9891 138.997 41.6901 138.176 45.7683C137.354 49.8465 133.289 65.1865 131.303 64.8686C129.874 64.64 132.445 47.7084 132.445 47.7084C132.445 47.7084 129.895 49.4687 124.639 49.4584C116.919 49.4433 107.469 44.4659 107.469 44.4659C107.469 44.4659 105.063 59.6483 103.764 60.1054H103.764Z" fill="#30304D"/>
<path d="M113.824 37.0105C112.517 35.642 112.142 33.7274 113.346 32.1299C114.185 31.0137 115.551 30.3848 116.93 30.1817C120.412 29.6677 123.859 31.5136 127.329 30.5934C129.153 30.1093 130.675 29.1463 132.614 29.0573C134.974 28.9491 139.637 29.7057 140.623 32.3353C140.854 32.9508 140.812 33.6406 140.65 34.2787C139.678 38.1054 135.256 40.2372 131.616 40.3661C128.152 40.4887 115.173 38.423 113.825 37.0105H113.824Z" fill="#30304D"/>
<path d="M148.495 216.63C139.218 219.106 129.255 218.605 119.584 218.064C111.008 217.584 102.433 217.104 93.857 216.625C90.5225 216.438 86.5674 215.862 85.1116 212.883C84.4693 211.571 84.4807 210.05 84.5109 208.592C85.1628 176.725 88.0719 144.589 82.7653 113.152C82.1082 109.259 80.5791 100.33 82.3822 96.8106L94.7364 94.1382C99.2019 100.224 104.01 105.887 111.204 108.241C118.727 110.702 127.652 109.656 133.576 104.44C136.871 101.539 137.602 98.0842 139.551 94.1386C142.617 94.8811 151.571 98.8153 151.571 98.8153C154.184 102.725 152.812 107.928 152.52 112.611C151.12 135.075 148.77 146.634 149.857 166.691C150.633 181.026 156.11 202.045 151.771 215.617C150.69 216.001 149.597 216.336 148.495 216.63V216.63Z" fill="#FEFEFE"/>
<path d="M110.991 222.682C110.393 212.485 108.747 203.357 108.149 193.159C107.842 187.883 107.534 182.574 108.173 177.328C108.782 172.326 110.244 167.455 110.76 162.443C111.728 153.01 115.548 141.514 114.853 132.056C114.471 126.864 108.522 115.713 104.206 108.512C101.382 103.8 97.2175 93.1914 97.2175 93.1914L78.2794 97.2928C78.2794 97.2928 81.0434 120.231 81.4375 128.026C81.8334 135.822 84.9421 168.26 83.3883 175.425C81.8334 182.59 80.8206 216.174 81.4375 219.203C82.0558 222.232 110.991 222.682 110.991 222.682L110.991 222.682Z" fill="#29605F"/>
<path d="M118.211 222.682C116.57 212.647 120.733 177.411 120.755 174.287C120.798 168.211 120.974 137.987 121.924 133.72C123.034 128.748 133.567 104.041 135.961 93.1914C135.961 93.1914 149.022 96.1581 152.264 99.2119C155.506 102.266 153.02 125.65 152.264 132.999C151.508 140.35 150.799 171.528 152.264 179.991C153.728 188.454 152.575 217.159 152.264 219.398C151.951 221.638 118.211 222.682 118.211 222.682L118.211 222.682Z" fill="#29605F"/>
<path d="M182.604 163.542C178.922 156.125 174.951 148.695 172.922 140.637C171.997 136.967 171.467 133.146 169.811 129.746C168.028 126.088 165.057 123.151 162.968 119.659C160.567 115.649 159.403 111.03 157.441 106.786C155.764 103.159 152.4 98.0487 149.746 97.8763C147.092 97.7038 138.837 126.687 147.58 138.491C148.684 139.98 149.943 141.422 150.493 143.192C151.104 145.163 163.777 170.964 168.533 173.236C178.01 177.765 181.109 166.355 182.604 163.542Z" fill="#29605F"/>
<path d="M151.702 145.246C151.886 140.267 152.07 135.289 152.254 130.31C152.307 128.905 152.358 127.5 152.411 126.094C152.432 125.538 151.571 125.541 151.55 126.094C151.365 131.073 151.181 136.051 150.996 141.03C150.945 142.435 150.893 143.84 150.841 145.246C150.82 145.801 151.682 145.801 151.702 145.246L151.702 145.246Z" fill="#282828"/>
<path d="M45.7601 162.871C49.4419 155.455 53.4124 148.024 55.4424 139.967C56.3668 136.298 56.8968 132.477 58.553 129.075C60.3347 125.417 63.3064 122.481 65.3957 118.99C67.7955 114.978 68.9615 110.36 70.9226 106.116C72.5991 102.489 75.963 97.3788 78.6173 97.2063C81.2708 97.0343 89.5278 126.018 80.7824 137.822C79.6801 139.31 78.4206 140.751 77.8704 142.523C77.2583 144.492 64.5863 170.293 59.8306 172.566C50.3534 177.095 47.2539 165.684 45.7601 162.872V162.871Z" fill="#29605F"/>
<path d="M83.574 146.102C83.2267 144.728 83.1622 143.317 83.1464 141.907C83.1302 140.481 83.1225 139.055 83.0731 137.628C82.9704 134.72 82.7538 131.815 82.4227 128.922C82.2356 127.284 82.0128 125.651 81.7546 124.024C81.6681 123.476 80.8383 123.709 80.9249 124.254C81.8346 130.011 82.2353 135.807 82.2831 141.634C82.296 143.211 82.3553 144.794 82.7428 146.33C82.879 146.868 83.7106 146.64 83.574 146.102V146.102Z" fill="#282828"/>
<path d="M91.6549 198.895C94.6037 200.238 98.2409 199.923 100.918 198.096C101.666 197.585 102.383 196.89 102.508 195.992C102.529 195.85 102.531 195.696 102.457 195.575C102.31 195.329 101.959 195.331 101.676 195.372C99.7984 195.648 97.9224 196.295 96.0485 195.995C94.564 195.757 93.2249 194.94 91.7513 194.641C90.6314 194.415 89.4496 194.5 88.373 194.884L91.6549 198.895Z" fill="#F1835D"/>
<path d="M85.0718 200.36C85.0718 200.36 86.5755 204.399 87.1507 205.881C87.7256 207.362 97.4982 205.35 99.1938 203.935C100.89 202.52 95.9889 198.458 95.9889 198.458L89.4923 197.248L85.0718 200.36Z" fill="#F1835D"/>
<path d="M97.3667 204.814L94.8311 202.26L96.8585 204.985L97.3667 204.814Z" fill="#B7664B"/>
<path d="M93.8764 205.771L92.3068 203.702L93.5766 205.835L93.8764 205.771Z" fill="#B7664B"/>
<path d="M90.9916 206.264L89.9232 204.767L90.7338 206.293L90.9916 206.264Z" fill="#B7664B"/>
<path d="M85.6691 208.539C88.5569 205.711 92.5952 197.161 93.7947 191.606C93.9563 190.853 84.1073 185.556 80.9952 184.506C74.0968 182.179 65.4435 175.959 60.2746 170.82C55.6773 166.249 47.1201 159.687 45.76 162.76C44.4 165.834 39.8332 172.902 40.2368 177.056C40.7576 182.418 47.1459 189.27 51.8342 191.904C56.5225 194.538 84.793 208.148 85.6691 208.54V208.539Z" fill="#29605F"/>
<path d="M60.345 171.007C57.5581 170.774 54.7617 170.88 51.9974 171.301C51.4519 171.384 51.6836 172.216 52.2264 172.133C54.9116 171.725 57.6395 171.644 60.345 171.869C60.897 171.916 60.8941 171.052 60.345 171.007Z" fill="#282828"/>
<path d="M108.22 157.137H119.193C120.771 157.137 122.061 155.843 122.061 154.261V133.838C122.061 132.256 120.771 130.961 119.193 130.961H108.22C106.642 130.961 105.351 132.256 105.351 133.838V154.261C105.351 155.843 106.642 157.137 108.22 157.137Z" fill="#30304D"/>
<path d="M126.517 146.857C128.932 147.926 132.11 153.456 129.925 156.804C127.736 160.198 120.635 160.128 118.26 158.762C115.909 157.49 117.107 152.916 119.344 149.83C121.567 146.622 124.1 145.885 126.517 146.857Z" fill="#F1835D"/>
<path d="M122.006 147.515C121.477 147.239 118.394 145.771 115.432 143.319C112.46 141.026 109.605 137.746 109.299 137.531C108.596 137.109 108.08 137.645 109.25 139.262C109.822 140.082 112.29 143.04 114.86 145.176C117.423 147.426 120.087 148.855 120.854 149.268C122.404 150.005 123.287 148.066 122.006 147.515H122.006Z" fill="#F1835D"/>
<path d="M120.345 149.272C119.794 148.968 116.571 147.364 113.539 144.605C110.485 142.032 107.619 138.307 107.319 138.088C106.672 137.691 106.142 138.36 107.316 140.218C107.892 141.161 110.374 144.538 113.011 146.95C115.633 149.495 118.407 151.075 119.208 151.533C120.826 152.345 121.689 149.871 120.345 149.272Z" fill="#F1835D"/>
<path d="M119.253 151.885C118.705 151.585 115.521 150.022 112.564 147.259C109.58 144.688 106.823 140.917 106.538 140.677C105.913 140.236 105.432 141.198 106.565 143.112C107.118 144.08 109.514 147.528 112.092 149.973C114.648 152.557 117.384 154.137 118.176 154.593C119.778 155.401 120.585 152.472 119.253 151.886V151.885Z" fill="#F1835D"/>
<path d="M118.644 155.939C118.208 155.725 115.73 154.614 113.406 152.756C111.066 151.018 108.88 148.533 108.651 148.357C107.881 147.824 107.751 149.185 108.662 150.494C109.487 152.364 116.824 158.354 118.26 158.762C119.696 159.17 119.69 156.372 118.644 155.939L118.644 155.939Z" fill="#F1835D"/>
<path d="M127.146 147.224L122.062 141.856V145.72L123.818 148.649L127.146 147.224Z" fill="#F1835D"/>
<path d="M122.028 164.804C122.232 160.762 125.953 152.069 129.313 147.491C129.768 146.871 140.248 150.769 143.091 152.414C149.397 156.059 159.774 158.449 167.037 158.932C173.498 159.364 182.62 160.622 182.673 163.983C182.798 172.212 179.008 175.676 175.635 178.122C171.28 181.28 161.93 181.011 156.858 179.228C151.787 177.447 122.901 165.203 122.028 164.804L122.028 164.804Z" fill="#29605F"/>
<path d="M158.392 158.049C161.061 158.545 163.672 159.345 166.154 160.448C166.654 160.671 167.099 159.931 166.594 159.706C164.037 158.571 161.369 157.728 158.618 157.215C158.079 157.114 157.846 157.946 158.392 158.049Z" fill="#282828"/>
<path d="M237.309 100.383H206.375C198.356 100.383 191.784 106.913 191.687 114.933C188.901 114.664 186.163 113.866 183.675 112.577C183.451 112.461 183.176 112.341 182.959 112.47C182.644 112.658 182.768 113.138 182.936 113.462C184.996 117.452 188.039 120.915 191.69 123.518C191.874 131.462 198.411 137.904 206.375 137.904H237.31C245.39 137.904 252 131.274 252 123.175V115.112C252 107.012 245.39 100.383 237.31 100.383L237.309 100.383Z" fill="#F7AF4F"/>
<path d="M215.612 137.904H226.192L231.776 136.652C232.148 135.922 231.953 130.208 231.308 129.642C230.788 129.186 230.054 128.977 229.352 128.778C227.5 128.25 226.136 127.676 224.321 127.055C224.013 126.949 223.69 126.834 223.48 126.609C223.25 126.364 223.349 120.314 223.349 120.314H218.574C218.574 120.314 218.674 126.364 218.443 126.609C218.232 126.833 217.911 126.949 217.601 127.055C215.787 127.676 214.306 128.25 212.453 128.778C211.751 128.977 211.017 129.186 210.497 129.642C209.852 130.208 209.658 135.922 210.028 136.652L215.613 137.904H215.612Z" fill="#F5886C"/>
<path d="M223.329 123.761C223.319 122.093 223.349 120.314 223.349 120.314H218.573C218.573 120.314 218.618 123.012 218.579 124.878C220.297 125.197 221.913 124.707 223.329 123.761Z" fill="#282828"/>
<path d="M226.153 113.581C226.153 115.213 225.437 119.174 224.899 121.014C224.335 122.95 222.299 123.87 221.005 123.87C219.713 123.87 217.875 122.889 217.117 121.029C216.412 119.298 215.856 115.218 215.856 113.582C215.856 110.584 218.16 109.293 221.005 109.293C223.848 109.293 226.153 110.584 226.153 113.582L226.153 113.581Z" fill="#F5886C"/>
<path d="M222.131 116.089C222.395 114.526 224.381 115.844 224.133 116.095C223.885 116.347 223.24 115.993 222.739 116.092C222.568 116.127 222.13 116.29 222.131 116.089Z" fill="#30304D"/>
<path d="M219.818 116.089C219.554 114.526 217.582 115.817 217.829 116.068C218.077 116.319 218.708 115.992 219.209 116.092C219.382 116.127 219.819 116.29 219.818 116.089Z" fill="#30304D"/>
<path d="M223.776 117.174C223.776 117.418 223.58 117.616 223.337 117.616C223.094 117.616 222.897 117.418 222.897 117.174C222.897 116.932 223.094 116.734 223.337 116.734C223.58 116.734 223.776 116.932 223.776 117.174Z" fill="#30304D"/>
<path d="M219.266 117.174C219.266 117.418 219.07 117.616 218.826 117.616C218.583 117.616 218.386 117.418 218.386 117.174C218.386 116.932 218.583 116.734 218.826 116.734C219.07 116.734 219.266 116.932 219.266 117.174Z" fill="#30304D"/>
<path d="M221.217 116.041C221.06 116.666 221.307 117.273 221.536 117.853C221.642 118.125 221.776 118.416 221.767 118.712C221.757 119.029 221.531 119.206 221.24 119.317C220.882 119.452 220.491 119.521 220.107 119.551C219.967 119.562 220.012 119.766 220.151 119.755C220.507 119.726 220.859 119.66 221.198 119.55C221.492 119.457 221.785 119.315 221.916 119.031C222.041 118.76 221.977 118.441 221.883 118.168C221.773 117.848 221.631 117.537 221.526 117.215C221.409 116.859 221.331 116.479 221.423 116.111C221.455 115.982 221.25 115.912 221.217 116.041H221.217Z" fill="#C95839"/>
<path d="M222.503 120.003C221.959 119.833 221.399 120.156 220.819 120.109C220.609 120.093 220.406 120.025 220.199 119.998C219.957 119.968 219.69 119.996 219.502 120.204C219.497 120.203 219.769 120.78 220.054 120.93C220.365 121.1 220.729 121.14 221.082 121.138C221.429 121.138 221.792 121.098 222.085 120.908C222.265 120.801 222.54 120.15 222.503 120.003V120.003Z" fill="#A83A36"/>
<path d="M222.503 120.003C221.958 119.833 221.399 120.156 220.819 120.109C220.609 120.093 220.406 120.025 220.199 119.998C219.957 119.968 219.69 119.996 219.502 120.203C219.5 120.203 219.534 120.278 219.592 120.381C220.4 120.634 221.962 120.65 222.462 120.246C222.496 120.139 222.515 120.048 222.502 120.003H222.503Z" fill="#FEFEFE"/>
<path d="M227.303 117.982C227.303 118.708 226.715 119.297 225.991 119.297C225.267 119.297 224.68 118.708 224.68 117.982C224.68 117.255 225.267 116.667 225.991 116.667C226.715 116.667 227.303 117.255 227.303 117.982Z" fill="#F5886C"/>
<path d="M226.35 117.299C226.538 117.417 226.662 117.627 226.668 117.849C226.674 118.078 226.556 118.3 226.366 118.426C226.267 118.493 226.36 118.655 226.46 118.588C226.703 118.426 226.861 118.146 226.854 117.849C226.847 117.561 226.687 117.291 226.444 117.139C226.343 117.075 226.25 117.236 226.351 117.299H226.35Z" fill="#D5644D"/>
<path d="M214.705 117.982C214.705 118.708 215.293 119.297 216.017 119.297C216.741 119.297 217.328 118.708 217.328 117.982C217.328 117.255 216.741 116.667 216.017 116.667C215.293 116.667 214.705 117.255 214.705 117.982Z" fill="#F5886C"/>
<path d="M215.658 117.299C215.472 117.417 215.346 117.627 215.34 117.849C215.334 118.078 215.452 118.3 215.642 118.426C215.741 118.493 215.648 118.655 215.548 118.588C215.305 118.426 215.147 118.146 215.154 117.849C215.162 117.561 215.322 117.291 215.565 117.139C215.666 117.075 215.76 117.236 215.658 117.299Z" fill="#D5644D"/>
<path d="M219.135 113.056C219.056 113.097 218.978 113.139 218.901 113.178C218.247 113.511 217.463 113.739 216.767 113.599C216.585 114.767 216.489 115.949 216.48 117.132C215.644 116.316 214.861 115.379 214.497 114.262C214.157 113.222 214.23 111.998 214.897 111.132C215.307 110.6 215.921 110.215 216.189 109.599C216.335 109.261 216.366 108.875 216.554 108.559C216.94 107.91 217.812 107.787 218.565 107.767C219.155 107.753 219.805 107.733 220.3 107.455C220.223 107.201 220.079 106.945 219.937 106.725C219.637 106.257 219.364 105.595 219.752 105.196C219.991 104.95 220.376 104.939 220.719 104.944C221.377 104.954 222.056 104.969 222.659 105.236C223.26 105.505 223.769 106.095 223.734 106.754C223.727 106.872 223.704 106.993 223.739 107.105C223.807 107.321 224.06 107.42 224.285 107.431C224.51 107.443 224.742 107.401 224.958 107.463C225.264 107.551 225.479 107.833 225.598 108.13C225.932 108.965 225.634 109.965 225.012 110.616C224.524 111.125 223.868 111.442 223.179 111.611C223.16 111.695 223.133 111.777 223.097 111.854C222.902 112.274 222.501 112.57 222.065 112.716C221.818 112.799 221.551 112.84 221.296 112.788C221.114 112.751 220.943 112.669 220.761 112.629C220.201 112.504 219.655 112.783 219.134 113.055L219.135 113.056Z" fill="#30304D"/>
<path d="M224.37 109.763C223.991 109.753 223.598 109.773 223.265 109.928C222.761 110.163 222.434 110.785 223.093 111.212C223.015 112.224 223.637 113.268 224.654 113.761C224.822 113.843 225.021 113.935 225.053 114.102C225.07 114.192 225.032 114.281 225.003 114.369C224.825 114.895 224.951 115.466 225.185 115.974C225.375 116.389 225.634 116.776 225.865 117.174C226.249 115.916 227.016 114.717 227.026 113.414C227.032 112.661 226.783 111.927 226.473 111.226C226.254 110.728 225.966 110.206 225.43 109.957C225.116 109.81 224.751 109.775 224.394 109.765C224.387 109.765 224.378 109.763 224.37 109.763Z" fill="#30304D"/>
<path d="M225.395 110.419C226.119 109.972 226.379 108.936 225.935 108.204C225.863 108.086 225.673 108.189 225.745 108.308C226.126 108.936 225.92 109.841 225.293 110.229C225.175 110.301 225.277 110.492 225.395 110.419Z" fill="#30304D"/>
<path d="M222.192 105.858C222.472 105.603 222.883 105.51 223.244 105.632C223.575 105.744 223.837 106.038 223.921 106.376C223.966 106.558 223.967 106.748 224.047 106.92C224.113 107.065 224.232 107.169 224.377 107.231C224.646 107.347 225.025 107.301 225.243 107.517C225.599 107.869 225.238 108.385 224.973 108.655C224.875 108.753 225.027 108.906 225.125 108.807C225.417 108.511 225.68 108.127 225.574 107.689C225.475 107.279 225.108 107.18 224.743 107.11C224.577 107.077 224.383 107.041 224.277 106.892C224.149 106.713 224.174 106.455 224.11 106.252C223.992 105.878 223.7 105.573 223.335 105.435C222.893 105.269 222.383 105.393 222.039 105.705C221.937 105.799 222.089 105.953 222.192 105.859V105.858Z" fill="#30304D"/>
<path d="M220.804 106.969C220.566 106.94 220.359 107.059 220.147 107.15C219.928 107.244 219.695 107.276 219.457 107.275C219.002 107.273 218.553 107.167 218.097 107.178C217.873 107.184 217.65 107.22 217.442 107.307C217.222 107.399 217.031 107.546 216.853 107.705C216.493 108.031 216.1 108.395 215.893 108.843C215.783 109.082 215.72 109.346 215.753 109.609C215.787 109.885 215.974 110.127 215.966 110.407C215.961 110.546 216.177 110.546 216.181 110.407C216.188 110.179 216.081 109.986 216.011 109.775C215.935 109.545 215.95 109.308 216.028 109.079C216.186 108.618 216.572 108.27 216.915 107.942C217.087 107.78 217.27 107.622 217.487 107.521C217.684 107.43 217.902 107.398 218.115 107.394C218.541 107.385 218.958 107.478 219.382 107.49C219.612 107.497 219.848 107.479 220.068 107.409C220.311 107.332 220.539 107.153 220.804 107.185C220.942 107.201 220.94 106.985 220.804 106.969Z" fill="#30304D"/>
<path d="M236.103 137.422C235.479 136.027 235.302 134.505 234.838 133.059C234.476 131.935 233.697 130.35 232.886 129.929C232.874 129.91 232.862 129.891 232.85 129.872C232.85 129.872 226.472 127.46 225.416 127.205C224.745 128.563 224.237 133.04 221.005 133.323C218.408 133.552 217.407 128.912 216.843 127.205L208.281 129.318C208.278 129.323 208.276 129.33 208.274 129.335C208.26 129.336 208.247 129.338 208.234 129.344C207.382 129.682 206.819 131.713 206.651 133.079C206.455 134.678 206.559 136.316 206.195 137.885C206.194 137.891 206.192 137.897 206.191 137.904H236.339C236.257 137.745 236.177 137.585 236.104 137.422L236.103 137.422Z" fill="#E64E47"/>
<path d="M190.193 0H158.933C150.768 0 144.087 6.69811 144.087 14.8847V23.0319C144.087 31.2185 150.768 37.9166 158.933 37.9166H159.627C159.07 42.8227 156.908 47.5256 153.953 51.5115C159.385 48.1316 163.981 43.4194 167.257 37.9166H190.193C198.358 37.9166 205.037 31.2185 205.037 23.0319V14.8847C205.037 6.69848 198.358 0 190.193 0Z" fill="#3FA8A8"/>
<path d="M168.739 20.2421C168.373 19.5815 168.01 18.7366 168.446 18.1189C168.635 17.85 168.95 17.6783 169.093 17.3825C169.325 16.9006 169.004 16.3427 168.668 15.9269C168.332 15.5115 167.943 15.0373 168.036 14.5104C168.147 13.8778 168.92 13.4764 168.914 12.8343C168.906 12.0651 167.807 11.7006 167.706 10.9381C167.592 10.0629 169.472 8.91194 169.736 8.07002C170.907 4.34117 171.89 4.04834 177.012 4.04834C179.014 4.04834 180.185 5.30274 181.452 7.80341C181.901 8.69002 181.879 9.63201 182.262 10.1866C182.561 10.6202 183.124 10.9023 183.205 11.4229C183.291 11.9735 182.779 12.4406 182.7 12.9923C182.551 14.03 183.931 14.8113 183.804 15.8519C183.697 16.7326 182.545 17.2791 182.612 18.1635C182.64 18.5391 182.893 18.8603 182.97 19.2281C183.048 19.5963 182.783 20.0926 182.424 19.9859L168.74 20.2429L168.739 20.2421Z" fill="#30304D"/>
<path d="M185.768 31.0158C186.128 30.3072 184.297 25.0115 183.616 24.8177C181.817 24.3059 180.894 23.7564 179.132 23.1538C178.832 23.0511 178.52 22.9388 178.316 22.721C178.092 22.4828 178.189 16.6089 178.189 16.6089H173.553C173.553 16.6089 173.65 22.4828 173.426 22.721C173.221 22.9385 172.908 23.0511 172.609 23.1538C170.848 23.7564 169.409 24.3144 167.61 24.8262C166.929 25.02 166.217 25.222 165.712 25.6655C165.085 26.215 164.897 31.7621 165.257 32.4703L175.813 34.8366L185.768 31.0158H185.768Z" fill="#E57C58"/>
<path d="M178.17 19.9559C178.161 18.3363 178.189 16.6089 178.189 16.6089H173.553C173.553 16.6089 173.596 19.2285 173.559 21.0397C175.226 21.3499 176.796 20.8743 178.17 19.9559Z" fill="#282828"/>
<path d="M180.588 9.79369C180.588 11.3771 180.581 14.8157 179.373 16.8168C178.362 18.4899 176.85 19.7738 175.594 19.7738C174.342 19.7738 172.833 18.4977 171.824 16.8319C170.609 14.829 170.6 11.3812 170.6 9.79369C170.6 6.88645 172.836 5.63428 175.594 5.63428C178.353 5.63428 180.588 6.88645 180.588 9.79369H180.588Z" fill="#F1835D"/>
<path d="M174.242 12.2117C174.106 12.1995 174.1 12.1688 173.996 12.1079C173.437 11.7645 172.742 12.0303 172.177 12.3948C172.119 11.9783 173.266 11.4196 173.733 11.5078C174.202 11.5965 174.652 12.0828 174.241 12.212L174.242 12.2117Z" fill="#30304D"/>
<path d="M176.819 12.0124C177.082 10.9359 178.904 11.5855 179.013 12.3022C178.489 12.0031 177.818 11.6748 177.187 12.0644C177.108 12.0873 176.788 12.3284 176.819 12.0124Z" fill="#30304D"/>
<path d="M175.319 12.2433C175.254 12.7629 175.332 13.2924 175.533 13.775C175.636 14.0228 175.776 14.2429 175.921 14.4685C176.057 14.6838 176.158 14.9157 175.989 15.1435C175.804 15.3931 175.479 15.5058 175.202 15.6125C175.087 15.6564 175.137 15.844 175.252 15.799C175.695 15.6287 176.408 15.3355 176.258 14.7288C176.191 14.4585 175.987 14.2392 175.855 13.9995C175.716 13.7484 175.614 13.4792 175.553 13.199C175.484 12.8851 175.473 12.5623 175.512 12.2437C175.527 12.1207 175.334 12.1218 175.319 12.2437V12.2433Z" fill="#D5644D"/>
<path d="M177.086 16.1399C176.533 15.9815 175.966 16.281 175.378 16.2374C175.165 16.2219 174.959 16.1598 174.749 16.1355C174.504 16.1074 174.233 16.134 174.042 16.3249C174.037 16.3249 174.313 16.8585 174.602 16.997C174.917 17.1543 175.286 17.1908 175.644 17.1897C175.996 17.1901 176.364 17.1521 176.662 16.9763C176.845 16.8766 177.122 16.2762 177.086 16.1395V16.1399Z" fill="#E75258"/>
<path d="M174.577 16.4545C174.57 16.5087 176.314 16.6011 176.707 16.3658C176.712 16.357 176.432 16.8422 175.584 16.8518C174.739 16.8363 174.575 16.4441 174.577 16.4545Z" fill="#FEFEFE"/>
<path d="M178.37 13.0697C178.37 13.3134 178.173 13.5113 177.929 13.5113C177.687 13.5113 177.49 13.3138 177.49 13.0697C177.49 12.826 177.687 12.6284 177.929 12.6284C178.173 12.6284 178.37 12.826 178.37 13.0697Z" fill="#30304D"/>
<path d="M173.853 13.0697C173.853 13.3134 173.656 13.5113 173.413 13.5113C173.17 13.5113 172.972 13.3138 172.972 13.0697C172.972 12.826 173.169 12.6284 173.413 12.6284C173.655 12.6284 173.853 12.826 173.853 13.0697Z" fill="#30304D"/>
<path d="M181.901 13.8772C181.901 14.6047 181.313 15.1944 180.587 15.1944C179.862 15.1944 179.274 14.6047 179.274 13.8772C179.274 13.1501 179.862 12.5601 180.587 12.5601C181.313 12.5601 181.901 13.1498 181.901 13.8772Z" fill="#F1835D"/>
<path d="M180.948 13.1936C181.134 13.3111 181.26 13.5215 181.265 13.7438C181.272 13.9728 181.154 14.1958 180.963 14.3225C180.864 14.3886 180.957 14.5503 181.057 14.4835C181.302 14.3214 181.459 14.0404 181.451 13.7438C181.444 13.4547 181.285 13.1855 181.041 13.0323C180.94 12.9684 180.846 13.1298 180.948 13.1936H180.948Z" fill="#D5644D"/>
<path d="M169.286 13.8772C169.286 14.6047 169.874 15.1944 170.6 15.1944C171.325 15.1944 171.913 14.6047 171.913 13.8772C171.913 13.1501 171.326 12.5601 170.6 12.5601C169.874 12.5601 169.286 13.1498 169.286 13.8772Z" fill="#F1835D"/>
<path d="M170.24 13.1936C170.053 13.3111 169.929 13.5215 169.922 13.7438C169.916 13.9728 170.034 14.1958 170.224 14.3225C170.324 14.3886 170.23 14.5503 170.13 14.4835C169.886 14.3214 169.728 14.0404 169.736 13.7438C169.743 13.4547 169.903 13.1855 170.146 13.0323C170.248 12.9684 170.342 13.1298 170.24 13.1936H170.24Z" fill="#D5644D"/>
<path d="M170.442 7.48125C171.523 5.47023 173.541 4.8783 175.136 4.74204C177.243 4.56183 180.476 5.51934 180.904 6.81547C181.331 8.11159 180.587 12.5605 180.587 12.5605L178.776 10.1529C176.552 10.1529 174.329 10.1529 172.105 10.1529C172.019 10.7437 171.64 11.2902 171.343 11.8286C171.264 11.9719 171.187 12.1259 171.192 12.2898C171.195 12.4379 171.265 12.5764 171.344 12.7012C171.702 13.2592 172.332 13.771 172.211 14.4223C172.167 14.6568 172.026 14.8603 171.946 15.0848C171.741 15.6502 171.937 16.2834 172.219 16.8152C172.5 17.3466 172.869 17.8388 173.044 18.4145C173.22 18.9898 173.145 19.7028 172.665 20.0655H170.6C170.6 20.0655 170.156 19.4617 170.283 18.5751C170.412 17.6885 169.536 15.9157 169.05 14.8071C168.563 13.699 169.286 13.8773 169.736 9.88702C169.845 8.91769 170.096 8.12636 170.442 7.48125Z" fill="#30304D"/>
<path d="M178.721 9.10869C178.535 9.46651 178.484 9.87528 178.571 10.2693C178.659 10.6685 178.893 10.9665 179.181 11.243C179.318 11.3745 179.465 11.5045 179.57 11.6647C179.695 11.8575 179.692 12.0263 179.652 12.2471C179.57 12.6776 179.754 13.0118 180.037 13.3239C180.318 13.6329 180.887 14.0941 180.639 14.572C180.563 14.7189 180.785 14.8493 180.861 14.7023C181.061 14.3179 180.885 13.9095 180.637 13.5938C180.391 13.2784 179.984 13.0185 179.893 12.6045C179.845 12.3796 179.961 12.1618 179.938 11.9354C179.92 11.7582 179.843 11.599 179.737 11.458C179.507 11.1529 179.168 10.941 178.975 10.6068C178.735 10.1917 178.723 9.6637 178.942 9.23867C179.018 9.0917 178.797 8.96135 178.721 9.10869Z" fill="#30304D"/>
<path d="M171.999 9.58423C172.232 9.87152 172.163 10.2814 172.046 10.6027C171.914 10.9649 171.689 11.2862 171.575 11.6573C171.353 12.3859 171.761 12.9715 172.059 13.6026C172.213 13.9298 172.298 14.2658 172.23 14.6277C172.159 14.9991 171.992 15.3429 171.887 15.7048C171.683 16.4053 171.834 17.1723 172.386 17.6756C172.534 17.8111 172.742 17.9204 172.831 18.1084C172.92 18.2948 172.859 18.5112 172.765 18.6833C172.561 19.0603 172.178 19.3015 171.999 19.6984C171.932 19.8483 172.154 19.9798 172.222 19.8284C172.384 19.4673 172.716 19.2361 172.929 18.91C173.118 18.6224 173.222 18.2306 173.021 17.9219C172.916 17.7624 172.76 17.6579 172.617 17.5367C172.473 17.4145 172.353 17.2709 172.259 17.1069C172.064 16.7646 172.003 16.3636 172.083 15.9781C172.164 15.5918 172.341 15.2347 172.441 14.854C172.536 14.4903 172.535 14.1277 172.407 13.7724C172.169 13.1063 171.597 12.5003 171.816 11.7489C171.943 11.3146 172.226 10.9446 172.345 10.507C172.45 10.1252 172.437 9.71864 172.18 9.40181C172.075 9.27294 171.895 9.45646 171.998 9.58386L171.999 9.58423Z" fill="#30304D"/>
<path d="M170.801 6.1924C169.675 6.60893 169.46 7.94383 169.058 8.92127C168.945 9.1997 168.806 9.46853 168.613 9.70079C168.429 9.92162 168.19 10.0863 167.994 10.2946C167.82 10.4792 167.681 10.7045 167.7 10.9685C167.717 11.1982 167.855 11.3817 168.015 11.5364C168.179 11.6952 168.386 11.8326 168.502 12.0357C168.614 12.2332 168.588 12.4489 168.5 12.6494C168.307 13.0921 167.931 13.433 167.775 13.8971C167.623 14.3532 167.787 14.7693 168.024 15.1611C168.23 15.5016 168.595 15.9429 168.441 16.369C168.335 16.6615 168.046 16.8409 167.859 17.0769C167.674 17.311 167.59 17.6005 167.589 17.897C167.586 18.5414 167.885 19.1736 167.745 19.8183C167.711 19.9801 167.967 20.0063 168.001 19.8456C168.122 19.2866 167.927 18.733 167.862 18.1806C167.83 17.9133 167.833 17.6326 167.96 17.3885C168.088 17.1437 168.324 16.9816 168.497 16.7719C168.811 16.3919 168.769 15.9503 168.548 15.5374C168.346 15.1578 168.009 14.7904 167.969 14.3454C167.889 13.4662 169.257 12.8108 168.718 11.8994C168.599 11.6982 168.413 11.5556 168.243 11.4005C168.075 11.2465 167.905 11.0542 167.966 10.8071C168.03 10.5568 168.272 10.3732 168.457 10.2115C168.672 10.0221 168.864 9.82191 169.015 9.57672C169.362 9.01396 169.502 8.36405 169.75 7.75809C169.978 7.20271 170.319 6.64438 170.906 6.42689C171.061 6.36928 170.955 6.1348 170.8 6.19203L170.801 6.1924Z" fill="#30304D"/>
<path d="M165.213 37.9042C167.009 34.1747 168.745 30.376 168.742 29.4665C168.891 26.4249 166.366 25.433 166.366 25.433C165.152 25.1476 162.454 29.5921 161.712 32.1718C161.343 33.4546 160.652 35.6613 159.941 37.9042H165.213H165.213Z" fill="#E57C58"/>
<path d="M185.515 37.9041H190.558C189.592 35.2868 188.561 32.4471 188.024 30.969C187.132 28.5063 184.352 24.3838 183.316 24.766C183.316 24.766 181.2 25.9506 181.616 28.9155C181.706 29.8763 183.648 34.0652 185.515 37.9038L185.515 37.9041Z" fill="#E57C58"/>
<path d="M167.788 37.9041H183.578C183.311 35.9573 183.156 33.9947 183.114 32.0302C183.063 29.6713 183.351 27.2482 184.027 24.6526L182.327 24.146C181.736 26.8295 181.037 30.0229 180.776 32.282C180.763 32.3961 173.206 32.3622 169.243 32.3677C168.947 29.6569 168.495 27.2899 167.869 24.6116L166.089 25.2981C167.352 29.4878 167.847 33.679 167.788 37.9045V37.9041Z" fill="#FEC85B"/>
<path d="M173.621 34.894C173.774 34.791 173.63 34.541 173.476 34.6452C173.412 34.6884 173.334 34.6064 173.287 34.5658C173.224 34.5115 173.161 34.4583 173.083 34.4269C172.94 34.3693 172.799 34.4081 172.683 34.5026C172.599 34.5702 172.514 34.7216 172.404 34.7423C172.303 34.7615 172.198 34.633 172.13 34.5765C172.027 34.4912 171.914 34.4107 171.776 34.4051C171.646 34.4 171.533 34.4627 171.44 34.5488C171.352 34.6297 171.289 34.7482 171.191 34.8154C171.085 34.8878 170.998 34.7556 170.918 34.6972C170.645 34.4993 170.222 34.6082 170.083 34.9166C170.005 35.0842 170.254 35.2312 170.33 35.0621C170.383 34.9465 170.499 34.8715 170.629 34.8844C170.769 34.8989 170.85 35.0377 170.973 35.0938C171.241 35.2172 171.421 34.9952 171.582 34.8165C171.64 34.7519 171.711 34.6692 171.805 34.7017C171.92 34.7401 172.011 34.8579 172.105 34.9277C172.208 35.0037 172.332 35.0502 172.462 35.0244C172.598 34.9974 172.694 34.8974 172.787 34.8014C172.823 34.7633 172.869 34.702 172.923 34.6898C172.995 34.6736 173.06 34.7511 173.11 34.7936C173.252 34.9147 173.447 35.0126 173.622 34.8944L173.621 34.894Z" fill="#E8E7E5"/>
<path d="M178.273 37.904C178.334 37.8316 178.41 37.7718 178.501 37.7803C178.599 37.7891 178.687 37.8545 178.779 37.904H179.213C179.232 37.8918 179.25 37.8789 179.268 37.8633C179.349 37.7947 179.413 37.6488 179.519 37.6218C179.623 37.596 179.755 37.6783 179.848 37.7123C179.965 37.7544 180.092 37.7784 180.209 37.726C180.267 37.7001 180.312 37.6595 180.351 37.6093C180.398 37.545 180.421 37.4568 180.503 37.4265C180.663 37.3671 180.831 37.5052 180.948 37.596C181.093 37.709 181.297 37.5063 181.152 37.3922C180.998 37.271 180.835 37.1477 180.634 37.1289C180.455 37.1123 180.28 37.1817 180.18 37.3357C180.148 37.3851 180.13 37.4579 180.067 37.469C180.014 37.4782 179.947 37.4424 179.898 37.4239C179.76 37.3718 179.62 37.3102 179.47 37.3386C179.312 37.3685 179.226 37.4874 179.125 37.5993C179.087 37.6418 179.051 37.6828 178.989 37.6791C178.922 37.6754 178.85 37.6196 178.792 37.589C178.638 37.5066 178.48 37.4586 178.309 37.5269C178.144 37.5934 178.026 37.7371 177.936 37.8862C177.933 37.8925 177.93 37.8981 177.929 37.904H178.273H178.273Z" fill="#E8E7E5"/>
<path d="M165.561 37.9042C167.096 34.4508 168.696 30.818 169.243 29.6703C169.874 27.883 167.781 27.3849 167.144 28.5562C166.749 29.2844 163.847 34.059 161.464 37.9042H165.561H165.561Z" fill="#F1835D"/>
<path d="M168.525 26.2446C167.724 26.7508 166.474 28.8161 166.996 29.8246C167.517 30.8475 169.726 30.4051 170.529 29.8002C171.319 29.2293 171.162 27.7471 170.614 26.831C170.074 25.8727 169.321 25.7719 168.525 26.2446Z" fill="#F1835D"/>
<path d="M169.255 25.9778C169.255 25.9778 170.976 25.8205 172.766 26.8969C173.792 27.6753 173.496 28.3876 172.619 27.7299C171.741 27.0723 170.506 27.2599 169.98 27.4475C169.455 27.635 169.043 26.4113 169.255 25.9778Z" fill="#F1835D"/>
<path d="M170.818 27.2399C170.639 27.22 170.459 27.2078 170.28 27.2019C170.145 27.1975 170.01 27.196 169.875 27.2089C169.735 27.2226 169.607 27.2684 169.477 27.3363C169.35 27.4028 169.225 27.4814 169.11 27.5738C169.072 27.6033 169.107 27.6771 169.144 27.6476C169.357 27.4785 169.604 27.3241 169.858 27.2964C170.11 27.2691 170.368 27.2876 170.62 27.3075C170.686 27.3131 170.752 27.3186 170.817 27.326C170.861 27.3308 170.861 27.2451 170.817 27.2407L170.818 27.2399Z" fill="#AC6148"/>
<path d="M171.004 27.9895C170.824 27.9695 170.644 27.957 170.465 27.9511C170.33 27.9463 170.195 27.9452 170.06 27.9581C169.92 27.9714 169.791 28.0176 169.661 28.0855C169.536 28.1516 169.411 28.2302 169.295 28.3226C169.259 28.3521 169.292 28.426 169.33 28.3964C169.543 28.2273 169.789 28.0729 170.043 28.0456C170.296 28.0183 170.553 28.0364 170.805 28.0567C170.871 28.0619 170.938 28.0678 171.004 28.0752C171.047 28.08 171.047 27.9943 171.004 27.9899V27.9895Z" fill="#AC6148"/>
<path d="M171.005 28.8006C170.832 28.7807 170.659 28.7685 170.486 28.7626C170.356 28.7581 170.226 28.7563 170.096 28.7696C169.962 28.7832 169.837 28.829 169.713 28.897C169.59 28.9631 169.47 29.0421 169.359 29.134C169.323 29.1636 169.356 29.2374 169.392 29.2079C169.597 29.0388 169.834 28.8844 170.079 28.8571C170.322 28.8298 170.571 28.8479 170.814 28.8682C170.878 28.8733 170.941 28.8793 171.004 28.8866C171.046 28.8914 171.046 28.8058 171.004 28.8013L171.005 28.8006Z" fill="#AC6148"/>
<path d="M182.223 37.9041H187.371C183.846 34.9411 179.282 31.0302 178.655 30.4383C177.687 29.5236 175.851 30.6495 177.006 32.1513C177.786 32.9704 179.969 35.402 182.223 37.9037V37.9041Z" fill="#F1835D"/>
<path d="M173.104 33.9081H176.865C177.406 33.9081 177.848 33.4646 177.848 32.9222V25.922C177.848 25.3795 177.406 24.936 176.865 24.936H173.104C172.563 24.936 172.12 25.3795 172.12 25.922V32.9222C172.12 33.4646 172.563 33.9081 173.104 33.9081Z" fill="#30304D"/>
<path d="M179.375 30.3839C180.202 30.7509 181.292 32.6456 180.542 33.7937C179.792 34.9565 177.358 34.9328 176.544 34.4642C175.739 34.0285 176.149 32.461 176.915 31.4027C177.678 30.303 178.546 30.0508 179.375 30.3835V30.3839Z" fill="#F1835D"/>
<path d="M177.829 30.6097C177.647 30.5151 176.59 30.0122 175.574 29.1714C174.556 28.3852 173.578 27.2611 173.473 27.1877C173.232 27.0425 173.055 27.2268 173.456 27.7811C173.652 28.0621 174.498 29.0754 175.379 29.8076C176.258 30.579 177.171 31.069 177.433 31.2101C177.965 31.4627 178.267 30.7983 177.828 30.6097H177.829Z" fill="#F1835D"/>
<path d="M177.259 31.2121C177.07 31.1079 175.966 30.5577 174.926 29.612C173.879 28.7306 172.898 27.4533 172.795 27.378C172.572 27.2421 172.391 27.4714 172.794 28.1084C172.99 28.4315 173.842 29.5888 174.745 30.4156C175.644 31.2881 176.595 31.8302 176.869 31.9868C177.424 32.2652 177.72 31.417 177.259 31.2121Z" fill="#F1835D"/>
<path d="M176.885 32.1078C176.696 32.0048 175.606 31.4686 174.592 30.5215C173.57 29.6404 172.624 28.348 172.527 28.266C172.312 28.1142 172.147 28.4443 172.536 29.1002C172.726 29.4325 173.547 30.6141 174.43 31.452C175.306 32.3379 176.245 32.8792 176.516 33.0358C177.064 33.3127 177.342 32.3087 176.885 32.1082V32.1078Z" fill="#F1835D"/>
<path d="M176.677 33.4975C176.527 33.4244 175.678 33.0433 174.881 32.4063C174.079 31.8107 173.33 30.9588 173.252 30.899C172.987 30.7165 172.943 31.1829 173.255 31.6316C173.538 32.2723 176.052 34.3254 176.545 34.465C177.037 34.6045 177.035 33.6463 176.677 33.4975Z" fill="#F1835D"/>
<path d="M179.59 30.5095L177.848 28.6694V29.994L178.449 30.9977L179.59 30.5095Z" fill="#F1835D"/>
<path d="M67.1436 25.7866H21.6192C9.72868 25.7866 0 35.5412 0 47.4633V59.3282C0 71.2503 9.72868 81.0052 21.6192 81.0052H41.3826C42.9865 86.3233 45.5561 91.3491 48.9384 95.7507C47.6752 92.321 47.6336 88.5356 48.2346 84.9297C48.4556 83.6048 48.7598 82.2987 49.1159 81.0052H67.1436C79.0341 81.0052 88.7632 71.2503 88.7632 59.3282V47.4633C88.7632 35.5412 79.0341 25.7866 67.1436 25.7866Z" fill="#5F7DBD"/>
<path d="M37.3068 61.9576C36.7713 60.9938 36.2432 59.7612 36.8774 58.8598C37.1529 58.468 37.6136 58.2177 37.8217 57.786C38.1601 57.0833 37.6917 56.2694 37.2019 55.6627C36.712 55.0567 36.1441 54.3647 36.2789 53.5963C36.4413 52.6739 37.5694 52.0882 37.5598 51.1518C37.5488 50.0296 37.3827 45.4961 37.1761 44.3934C36.4819 40.6786 38.3734 39.1942 38.7586 37.9667C40.4664 32.5282 41.9005 32.1006 49.3716 32.1006C52.2902 32.1006 53.9987 33.9299 55.8479 37.5772C56.5034 38.8707 56.3263 39.2518 56.5034 40.2196C56.8537 42.1324 56.5307 43.8879 56.783 44.6139C57.7582 47.4166 57.7825 50.5764 57.6669 51.3811C57.4499 52.8943 59.4623 54.0343 59.2781 55.5516C59.122 56.8362 57.4422 57.6335 57.5383 58.9233C57.5792 59.4706 57.9482 59.9399 58.0617 60.4765C58.1755 61.013 57.7884 61.7375 57.264 61.5817L37.3057 61.9569L37.3068 61.9576Z" fill="#BC3F4E"/>
<path d="M62.9175 73.037C63.4803 71.9314 61.2481 63.6783 60.1845 63.3755C57.3774 62.5768 55.3098 61.7061 52.5613 60.7652C52.0928 60.6053 51.6045 60.4299 51.2859 60.0898C50.9368 59.7179 51.0878 50.5498 51.0878 50.5498H43.8517C43.8517 50.5498 44.0027 59.7179 43.6535 60.0898C43.3346 60.4295 42.8466 60.6049 42.3781 60.7652C39.6296 61.7061 37.3838 62.5768 34.5767 63.3755C33.5131 63.6783 32.4016 63.9933 31.6131 64.6857C30.6353 65.5439 30.3403 74.2017 30.903 75.3076L47.3806 79.0014L62.9175 73.037Z" fill="#CA7858"/>
<path d="M51.0583 55.7752C51.0436 53.2472 51.0878 50.5508 51.0878 50.5508H43.8517C43.8517 50.5508 43.9191 54.6397 43.8598 57.4671C46.4632 57.9512 48.9123 57.2086 51.0583 55.7755V55.7752Z" fill="#282828"/>
<path d="M26.8286 81.0022H35.1265C35.9334 75.7778 36.5172 71.0963 36.1783 69.9619C35.0569 65.3438 30.84 64.9805 30.84 64.9805C28.8976 65.0924 26.8231 72.9433 26.8515 77.1345C26.8584 78.1289 26.8485 79.472 26.8286 81.0022Z" fill="#CA7858"/>
<path d="M64.1354 64.0544C63.4673 63.4931 61.8321 63.1571 60.6311 62.9784C57.7121 62.0663 52.4345 60.5279 52.4345 60.5279C52.4345 61.3396 49.8742 72.268 47.775 72.2399C45.5343 72.21 42.7935 61.2377 42.5913 60.3252L32.772 63.8616C31.5607 64.0271 29.6943 64.3705 28.9684 64.9805C27.9953 65.7988 25.892 77.9647 25.3798 81.0022H67.285C67.285 81.0022 65.248 64.9901 64.1354 64.0544Z" fill="#F1F3F4"/>
<path d="M52.3521 60.3242C52.3521 60.3242 53.605 60.6551 53.9899 61.2673C54.3751 61.8796 53.0194 74.5901 53.0194 74.5901C53.0194 74.5901 51.1132 71.6079 50.1269 71.835C49.1097 72.0691 47.7754 72.2393 47.7754 72.2393C47.7754 72.2393 50.3519 68.1881 51.0881 65.6992C51.9985 62.6233 52.3521 60.3242 52.3521 60.3242Z" fill="#FEFEFE"/>
<path d="M42.9839 60.3115C42.9839 60.3115 41.7313 60.6424 41.3461 61.2546C40.9609 61.8665 42.3169 74.577 42.3169 74.577C42.3169 74.577 44.3661 71.7713 45.3778 71.7713C46.3891 71.7713 47.561 72.2266 47.561 72.2266C47.561 72.2266 44.9844 68.1754 44.2478 65.6866C43.3374 62.6102 42.9839 60.3115 42.9839 60.3115Z" fill="#FEFEFE"/>
<path d="M54.5883 40.4806C54.5883 42.79 54.5779 47.8057 52.815 50.7244C51.3407 53.1645 49.1358 55.0378 47.3035 55.0378C45.4772 55.0378 43.2763 53.176 41.8039 50.7466C40.0332 47.8246 40.0192 42.7959 40.0192 40.4806C40.0192 36.24 43.2807 34.4136 47.3039 34.4136C51.3271 34.4136 54.5886 36.2396 54.5886 40.4806H54.5883Z" fill="#CA7858"/>
<path d="M45.3324 44.0062C45.135 43.9878 45.1247 43.9438 44.9733 43.8545C44.1579 43.3534 43.1441 43.7411 42.3202 44.2725C42.2344 43.665 43.9086 42.85 44.5914 42.9789C45.2739 43.1082 45.9301 43.8183 45.3324 44.0059V44.0062Z" fill="#30304D"/>
<path d="M49.0906 43.7161C49.4751 42.1464 52.1319 43.0939 52.291 44.1386C51.5275 43.7025 50.5479 43.2235 49.6275 43.7918C49.5137 43.8254 49.0445 44.1766 49.0906 43.7158V43.7161Z" fill="#30304D"/>
<path d="M46.9037 44.0525C46.8083 44.8103 46.9214 45.5828 47.2156 46.2866C47.3663 46.6485 47.571 46.969 47.7806 47.298C47.9809 47.6123 48.1268 47.9505 47.8808 48.2828C47.6115 48.6466 47.1361 48.8109 46.731 48.9663C46.5634 49.0306 46.6363 49.3035 46.8061 49.2385C47.4521 48.99 48.4917 48.5624 48.2719 47.6769C48.1739 47.2825 47.8771 46.9631 47.6845 46.6134C47.4823 46.2474 47.3331 45.8542 47.2433 45.4454C47.1431 44.9875 47.1265 44.5171 47.1851 44.0522C47.2079 43.8723 46.9262 43.8742 46.9037 44.0522V44.0525Z" fill="#AF4D39"/>
<path d="M49.4801 49.7378C48.675 49.507 47.8464 49.9442 46.9898 49.8803C46.6789 49.8574 46.378 49.7673 46.072 49.7315C45.7133 49.6905 45.3192 49.7293 45.0404 50.0081C45.0319 50.0077 45.4356 50.7861 45.8569 50.9881C46.3165 51.2171 46.8553 51.271 47.3772 51.2695C47.891 51.2702 48.4287 51.2141 48.8625 50.9582C49.1284 50.8131 49.5346 49.9368 49.4805 49.7378H49.4801Z" fill="#FEFEFE"/>
<path d="M51.3528 45.2589C51.3528 45.6145 51.0656 45.9029 50.7109 45.9029C50.3562 45.9029 50.0686 45.6145 50.0686 45.2589C50.0686 44.9033 50.3562 44.6152 50.7109 44.6152C51.0656 44.6152 51.3528 44.9036 51.3528 45.2589Z" fill="#30304D"/>
<path d="M44.7647 45.2589C44.7647 45.6145 44.4774 45.9029 44.1228 45.9029C43.7681 45.9029 43.4808 45.6145 43.4808 45.2589C43.4808 44.9033 43.7681 44.6152 44.1228 44.6152C44.4774 44.6152 44.7647 44.9036 44.7647 45.2589Z" fill="#30304D"/>
<path d="M56.5041 46.437C56.5041 47.4976 55.6464 48.358 54.5883 48.358C53.5306 48.358 52.6729 47.4976 52.6729 46.437C52.6729 45.3765 53.5306 44.5161 54.5883 44.5161C55.646 44.5161 56.5041 45.3761 56.5041 46.437Z" fill="#CA7858"/>
<path d="M55.1132 45.4395C55.3857 45.6112 55.5684 45.918 55.5768 46.2423C55.5853 46.5761 55.4133 46.9018 55.1364 47.086C54.9913 47.1824 55.1272 47.4184 55.2734 47.3209C55.6291 47.0845 55.8597 46.6743 55.8483 46.2426C55.8372 45.8206 55.6048 45.428 55.2502 45.2046C55.1017 45.1112 54.9655 45.3468 55.1132 45.4395Z" fill="#AF4D39"/>
<path d="M38.1039 46.437C38.1039 47.4976 38.9616 48.358 40.0197 48.358C41.0778 48.358 41.9355 47.4976 41.9355 46.437C41.9355 45.3765 41.0778 44.5161 40.0197 44.5161C38.962 44.5161 38.1039 45.3761 38.1039 46.437Z" fill="#CA7858"/>
<path d="M39.495 45.4395C39.2225 45.6112 39.0398 45.918 39.0313 46.2423C39.0225 46.5761 39.1945 46.9018 39.4718 47.086C39.6165 47.1824 39.481 47.4184 39.3344 47.3209C38.979 47.0845 38.7485 46.6743 38.7595 46.2426C38.7706 45.8206 39.003 45.428 39.358 45.2046C39.5064 45.1112 39.6423 45.3468 39.495 45.4395Z" fill="#AF4D39"/>
<path d="M39.7899 37.1074C41.3665 34.1739 44.3091 33.3113 46.6363 33.1119C49.7097 32.849 54.4256 34.2459 55.0495 36.1362C55.6734 38.0265 54.5888 44.516 54.5888 44.516L50.6897 39.0874C49.4051 40.3894 44.5728 41.1874 41.3297 41.1874C41.2041 42.0496 41.6114 46.4369 41.389 48.5675C41.203 50.347 40.8782 51.6683 41.1065 53.1206C41.2564 54.0759 42.5476 54.6807 42.3697 55.6309C42.3056 55.9724 42.1005 56.2693 41.9823 56.5965C41.6843 57.4218 41.9701 58.345 42.3808 59.1204C42.7914 59.8959 43.3299 60.6137 43.5851 61.4538C43.8403 62.2932 43.7309 63.3326 43.0323 63.8618H40.0193C40.0193 63.8618 38.5716 62.4656 38.7594 61.1724C38.9469 59.8793 40.0193 58.4207 38.7594 55.8705C37.9779 54.2882 37.4483 46.4997 38.1039 40.6793C38.2633 39.2657 39.2842 38.0486 39.7899 37.1077V37.1074Z" fill="#BC3F4E"/>
<path d="M23.1936 67.6271C24.0532 69.1304 23.8087 72.2019 21.9517 73.2695C20.0941 74.337 17.3272 72.9966 16.4676 71.4937C15.6084 69.9904 16.9817 68.894 18.8394 67.8265C20.697 66.7586 22.3344 66.1242 23.194 67.6275L23.1936 67.6271Z" fill="#CA7858"/>
<path d="M23.4007 68.0379C23.4007 68.0379 22.1806 64.2503 21.7074 63.0366C21.2337 61.8228 20.3138 62.6943 20.573 64.0609C20.9642 66.1192 21.0606 67.2658 21.5464 67.7299C22.0326 68.1941 23.6611 68.8396 23.4007 68.0379Z" fill="#CA7858"/>
<path d="M20.7505 67.1188C20.3527 66.4678 16.4216 60.0267 16.0618 59.8553C15.6795 59.6729 15.1871 59.9428 15.597 60.7449C16.0069 61.5469 19.1672 66.9895 19.7163 67.95C20.2658 68.9108 21.2149 67.8787 20.7508 67.1188H20.7505Z" fill="#CA7858"/>
<path d="M19.4666 67.8055C19.0482 67.1206 14.916 60.3375 14.5341 60.164C14.1544 59.9922 13.6134 60.2563 14.0446 61.1C14.4759 61.9438 17.8008 67.6693 18.379 68.6803C18.9569 69.6914 19.9553 68.6054 19.4669 67.8055H19.4666Z" fill="#CA7858"/>
<path d="M18.3205 68.8721C17.9021 68.1871 13.7497 61.4435 13.388 61.2305C13.0238 61.0163 12.4677 61.3228 12.8989 62.1666C13.3298 63.01 16.6547 68.7358 17.2326 69.7465C17.8108 70.7575 18.8089 69.6715 18.3205 68.8721Z" fill="#CA7858"/>
<path d="M17.1827 70.51C16.8508 69.9665 13.5175 64.6705 13.2696 64.4482C12.8759 64.0944 12.5393 64.5213 12.8814 65.1904C13.2236 65.8599 15.8613 70.4022 16.3194 71.2039C16.7779 72.0056 17.5697 71.1444 17.1827 70.51Z" fill="#CA7858"/>
<path d="M20.6308 71.5477C20.232 70.2641 20.3498 68.8576 20.9696 67.6634C21.0786 67.4529 20.7619 67.2646 20.6522 67.4758C19.9878 68.7557 19.8467 70.2652 20.275 71.6444C20.3454 71.8704 20.7015 71.7755 20.6308 71.5477Z" fill="#995F48"/>
<path d="M21.5554 81.0013H26.1461C24.4568 76.8655 22.9796 73.1843 22.7152 72.4277C22.0965 70.6582 19.0798 70.8742 19.5523 73.4967C19.897 74.6791 20.6682 77.6115 21.5554 81.0013Z" fill="#CA7858"/>
</svg>
