<svg width="36" height="27" viewBox="0 0 36 27" fill="none" xmlns="http://www.w3.org/2000/svg">
<path fill-rule="evenodd" clip-rule="evenodd" d="M12.7305 22.3956V22.1875H26.043C26.043 23.1353 26.2281 23.6786 26.6956 24.4469C26.8434 24.6898 26.9538 24.768 27.083 24.9609H11.6903C12.1573 24.2636 12.7303 23.6748 12.7303 22.3956H12.7305ZM35.75 25.4725V25.7737C35.6847 26.0765 35.4354 26.3477 35.126 26.3477H0.873973C0.551141 26.3477 0.309648 26.0737 0.25 25.7689V25.4834C0.30927 25.2007 0.557195 24.9577 1.07814 24.957L5.45024 24.9609C5.24468 24.6541 4.98465 24.4288 4.76472 23.913C4.47796 23.2407 4.41011 22.9093 4.41011 22.1875H2.12204C1.22846 22.1875 0.25 21.209 0.25 20.3154V1.87204C0.25 0.978457 1.22846 0 2.12204 0H22.3681C23.2617 0 24.2402 0.978457 24.2402 1.87204V6.93356H30.1337C31.3397 6.93356 31.7891 7.81732 32.1676 8.57458C32.6507 9.54106 35.7499 15.4901 35.7499 16.0167V20.3156C35.7499 21.0341 34.9861 21.9971 34.3632 22.0489C34.3632 23.6818 33.9653 24.002 33.3232 24.9611C33.8328 24.9611 34.342 24.9616 34.8515 24.9582C35.4196 24.9543 35.6844 25.1925 35.7499 25.4727L35.75 25.4725ZM5.79678 22.1875C5.79678 21.1529 6.46741 20.0884 7.43855 19.669C10.1308 18.5062 12.6878 21.7496 10.5218 24.139C9.8178 24.9157 8.48549 25.156 7.43792 24.7067C6.47107 24.2921 5.7969 23.22 5.7969 22.1876L5.79678 22.1875ZM30.2031 24.9609C29.8714 24.9609 29.3293 24.8173 29.0714 24.7059C26.9148 23.7744 26.9148 20.6004 29.0714 19.669C31.4296 18.6505 33.7163 21.0016 32.7223 23.3199C32.4899 23.8622 31.8779 24.4742 31.3357 24.7066C31.1388 24.7909 30.4373 24.9609 30.2032 24.9609H30.2031ZM1.63666 16.6406H3.02333V18.0272H1.63666V16.6406ZM27.0136 11.0937H31.8671L33.9041 15.2408L27.0135 15.2539V11.0937H27.0136ZM1.63666 2.21871C1.63666 1.68263 1.93263 1.38666 2.46871 1.38666H22.0215C22.5575 1.38666 22.8535 1.68263 22.8535 2.21871V20.8008H12.6611C12.2866 20.8008 12.4858 19.996 11.227 18.9761C8.86885 17.0651 5.72464 18.2849 4.82652 20.3158C4.54076 20.9621 4.95653 20.8008 2.46871 20.8008C1.53414 20.8008 1.63666 20.0302 1.63666 19.4142H3.78602C4.12877 19.4142 4.40999 19.1328 4.40999 18.7902V15.878C4.40999 15.5353 4.12865 15.254 3.78602 15.254H1.63666V2.21884V2.21871ZM25.627 10.3311V16.0166C25.627 16.3592 25.9083 16.6406 26.2509 16.6406H34.3632V19.9686C34.3632 20.3267 34.3015 20.5166 34.0165 20.5926C33.938 19.6485 32.062 18.0272 30.5498 18.0272C29.3207 18.0272 28.5534 18.1443 27.5839 18.9442C26.2247 20.0656 26.4845 20.8007 26.1122 20.8007H24.2402V8.3201H29.8563C30.3253 8.3201 30.5312 8.4829 30.6911 8.80271C30.8077 9.03601 31.0452 9.45304 31.1044 9.70676L26.5253 9.70386C25.9959 9.70033 25.627 9.82997 25.627 10.3309V10.3311Z" fill="#056ABF"/>
<path fill-rule="evenodd" clip-rule="evenodd" d="M9.95702 4.78388C9.95702 5.20785 10.1373 5.54657 10.581 5.54657H19.4561C20.2937 5.54657 20.2937 4.15991 19.4561 4.15991H10.581C10.2384 4.15991 9.95702 4.44125 9.95702 4.78401V4.78388Z" fill="#056ABF"/>
<path fill-rule="evenodd" clip-rule="evenodd" d="M12.7305 7.55757C12.7305 7.98154 12.9108 8.32026 13.3544 8.32026H19.4561C20.2937 8.32026 20.2937 6.93359 19.4561 6.93359H13.3544C13.0118 6.93359 12.7305 7.21494 12.7305 7.55769V7.55757Z" fill="#056ABF"/>
<path fill-rule="evenodd" clip-rule="evenodd" d="M7.18355 21.9795V22.3955C7.18355 22.9037 7.85406 23.5742 8.36226 23.5742H8.77829C9.28649 23.5742 9.957 22.9037 9.957 22.3955V21.9795C9.957 21.4713 9.28649 20.8008 8.77829 20.8008H8.36226C7.85393 20.8008 7.18355 21.4713 7.18355 21.9795Z" fill="#056ABF"/>
<path fill-rule="evenodd" clip-rule="evenodd" d="M28.8164 21.9796V22.3956C28.8164 22.8988 29.3483 23.5743 30.2724 23.5743C31.4971 23.5743 31.993 22.0425 31.2296 21.2304C30.3385 20.2827 28.8163 21.0299 28.8163 21.9796H28.8164Z" fill="#056ABF"/>
<path fill-rule="evenodd" clip-rule="evenodd" d="M7.18355 4.78396C7.18355 5.82093 8.57021 5.82093 8.57021 4.78396C8.57021 3.94636 7.18355 3.94636 7.18355 4.78396Z" fill="#056ABF"/>
</svg>
